STARTFONT 2.1
FONT -FontForge-Collegiate-Book-R-Normal--50-480-75-75-P-219-ISO10646-1
SIZE 48 75 75
FONTBOUNDINGBOX 51 65 -4 -18
COMMENT "Generated by fontforge, http://fontforge.sourceforge.net"
COMMENT "Collegiate by Keith Bates, keith@k-type.com, K-Type Freebie 2005 and 2007.    Based on the lettering around the mosaic tile badge at Liverpool Collegiate School     www.keithbates.co.uk/collegiate"
STARTPROPERTIES 39
FOUNDRY "FontForge"
FAMILY_NAME "Collegiate"
WEIGHT_NAME "Book"
SLANT "R"
SETWIDTH_NAME "Normal"
ADD_STYLE_NAME ""
PIXEL_SIZE 50
POINT_SIZE 480
RESOLUTION_X 75
RESOLUTION_Y 75
SPACING "P"
AVERAGE_WIDTH 219
CHARSET_REGISTRY "ISO10646"
CHARSET_ENCODING "1"
FONTNAME_REGISTRY ""
CHARSET_COLLECTIONS "ISO8859-9 Symbol ISO10646-1"
FONT_NAME "Collegiate"
FACE_NAME "Collegiate"
COPYRIGHT "Collegiate by Keith Bates, keith@k-type.com, K-Type Freebie 2005 and 2007.    Based on the lettering around the mosaic tile badge at Liverpool Collegiate School     www.keithbates.co.uk/collegiate"
FONT_VERSION "Macromedia Fontographer 4.1.5 9/21/07"
FONT_ASCENT 40
FONT_DESCENT 10
UNDERLINE_POSITION -7
UNDERLINE_THICKNESS 1
X_HEIGHT 21
CAP_HEIGHT 32
RAW_ASCENT 800
RAW_DESCENT 200
NORM_SPACE 9
RELATIVE_WEIGHT 40
RELATIVE_SETWIDTH 50
SUPERSCRIPT_X 0
SUPERSCRIPT_Y 22
SUPERSCRIPT_SIZE 32
SUBSCRIPT_X 0
SUBSCRIPT_Y 7
SUBSCRIPT_SIZE 32
AVG_LOWERCASE_WIDTH 197
AVG_UPPERCASE_WIDTH 241
ENDPROPERTIES
CHARS 277
STARTCHAR space
ENCODING 32
SWIDTH 187 0
DWIDTH 9 0
BBX 1 1 0 0
BITMAP
00
ENDCHAR
STARTCHAR exclam
ENCODING 33
SWIDTH 247 0
DWIDTH 12 0
BBX 8 33 2 0
BITMAP
7E
7E
7E
7E
7E
7E
7E
7E
7E
7E
7E
7E
7E
7E
7E
7E
7E
7E
7E
7E
7E
7E
7E
7E
00
3C
7E
7F
FF
FF
7F
7E
3C
ENDCHAR
STARTCHAR quotedbl
ENCODING 34
SWIDTH 380 0
DWIDTH 19 0
BBX 15 10 2 24
BITMAP
3838
7C7C
FEFC
FEFE
FEFE
7CFC
7C7C
7C7C
3878
3838
ENDCHAR
STARTCHAR numbersign
ENCODING 35
SWIDTH 572 0
DWIDTH 29 0
BBX 29 34 0 -1
BITMAP
007C03E0
007C03E0
007803E0
00F803C0
00F807C0
00F807C0
00F807C0
01F00780
FFFFFFF8
FFFFFFF8
FFFFFFF8
FFFFFFF8
FFFFFFF8
03E01F00
03E01F00
03E01F00
03C01F00
07C01E00
07C03E00
07C03E00
FFFFFFF8
FFFFFFF8
FFFFFFF8
FFFFFFF8
FFFFFFF8
0F807C00
0F007800
1F00F800
1F00F800
1F00F800
1F00F800
1E00F000
3E01F000
3E01F000
ENDCHAR
STARTCHAR dollar
ENCODING 36
SWIDTH 418 0
DWIDTH 21 0
BBX 17 37 2 -3
BITMAP
07E000
07E000
07E000
07F000
1FFE00
3FFE00
7FFE00
FFFE00
FE0E00
FC0200
FC0000
FC0000
FC0000
FE0000
7F8000
7FE000
3FF000
1FF800
07FC00
03FE00
00FF00
007F00
003F80
001F80
001F80
001F80
001F80
803F80
E07F00
FFFF00
FFFE00
FFFC00
FFF800
3FE000
07E000
07E000
07E000
ENDCHAR
STARTCHAR percent
ENCODING 37
SWIDTH 671 0
DWIDTH 34 0
BBX 29 35 2 -1
BITMAP
0F800400
3FE00F00
3FE00F80
7FF01F00
78F01F00
F8F83E00
F8F83E00
F8F87C00
F0787C00
F078F800
F0F8F800
F8F9F000
F8F9F000
78F3E000
7FF3E000
7FF7C000
3FEFCFC0
0F8F9FE0
001FBFF0
001F3FF8
003F7CF8
003E7878
007E7878
007C7878
00FC7878
00F87878
01F87878
01F07878
03F07878
03E07CF8
07E03FF8
0FC03FF0
07C01FE0
03800FC0
00800000
ENDCHAR
STARTCHAR ampersand
ENCODING 38
SWIDTH 638 0
DWIDTH 32 0
BBX 28 35 3 -1
BITMAP
00FC0000
03FF0000
07FF8000
0FFFC000
1FFFE000
1FFFE000
1F87E000
1F07E000
3F03E000
1F87E000
1F87E000
1F8FE000
1FDFC000
0FFFC000
07FF0000
03FE0000
03FC0000
0FFE0000
1FFE0000
3FFF03C0
7FFF87C0
7F3FC7C0
FE1FE7C0
FE0FFFC0
FC07FFC0
FC03FF80
FC01FF80
FC01FF00
FC00FF00
FF03FF80
7FFFFFC0
7FFFFFC0
3FFFEFE0
1FFFC7F0
03FE0000
ENDCHAR
STARTCHAR quotesingle
ENCODING 39
SWIDTH 220 0
DWIDTH 11 0
BBX 7 10 2 24
BITMAP
38
7C
FC
FE
FE
7C
7C
7C
38
38
ENDCHAR
STARTCHAR parenleft
ENCODING 40
SWIDTH 333 0
DWIDTH 17 0
BBX 12 43 4 -5
BITMAP
0100
03C0
03F0
07E0
0FC0
0FC0
1F80
1F80
1F00
3F00
3F00
7E00
7E00
7E00
7E00
7E00
FC00
FC00
FC00
FC00
FC00
FC00
FC00
FC00
FC00
FC00
FC00
FE00
7E00
7E00
7E00
7E00
3F00
3F00
3F00
1F80
1F80
0FC0
0FC0
07E0
03E0
03D0
0100
ENDCHAR
STARTCHAR parenright
ENCODING 41
SWIDTH 333 0
DWIDTH 17 0
BBX 12 43 1 -5
BITMAP
1800
3800
FC00
7E00
7E00
3F00
3F00
1F80
1F80
0FC0
0FC0
0FC0
0FC0
07E0
07E0
07E0
07E0
07E0
07F0
07F0
07F0
07F0
07F0
07F0
07F0
07E0
07E0
07E0
07E0
07E0
0FC0
0FC0
0FC0
0F80
1F80
1F80
3F00
3F00
7E00
7E00
FC00
3800
1800
ENDCHAR
STARTCHAR asterisk
ENCODING 42
SWIDTH 363 0
DWIDTH 18 0
BBX 14 15 2 19
BITMAP
0C40
1CE0
3CF0
1FE0
1FE0
8FC4
FFFC
FFFC
FFFC
8FC4
1FE0
1FE0
3CF0
1CE0
0840
ENDCHAR
STARTCHAR plus
ENCODING 43
SWIDTH 561 0
DWIDTH 28 0
BBX 23 24 3 5
BITMAP
00FC00
00FC00
00FC00
00FC00
00FC00
00FC00
00FC00
00FC00
00FC00
FFFFFE
FFFFFE
FFFFFE
FFFFFE
FFFFFE
FFFFFE
00FC00
00FC00
00FC00
00FC00
00FC00
00FC00
00FC00
00FC00
00FC00
ENDCHAR
STARTCHAR comma
ENCODING 44
SWIDTH 233 0
DWIDTH 12 0
BBX 8 12 2 -4
BITMAP
3C
7E
FE
FF
FF
FF
FE
7E
1E
3C
7C
F8
ENDCHAR
STARTCHAR hyphen
ENCODING 45
SWIDTH 321 0
DWIDTH 16 0
BBX 13 5 1 9
BITMAP
FFF8
FFF8
FFF8
FFF8
FFF8
ENDCHAR
STARTCHAR period
ENCODING 46
SWIDTH 233 0
DWIDTH 12 0
BBX 8 8 2 0
BITMAP
3C
7E
FE
FF
FF
FE
7E
3C
ENDCHAR
STARTCHAR slash
ENCODING 47
SWIDTH 340 0
DWIDTH 17 0
BBX 17 39 0 -3
BITMAP
000800
000E00
001F80
001F80
001F00
003F00
003E00
003E00
007E00
007C00
007C00
007C00
00F800
00F800
00F800
01F000
01F000
01F000
03E000
03E000
03E000
07C000
07C000
07C000
0F8000
0F8000
0F8000
1F0000
1F0000
1F0000
3E0000
3E0000
3E0000
7C0000
7C0000
FC0000
FC0000
380000
080000
ENDCHAR
STARTCHAR zero
ENCODING 48
SWIDTH 516 0
DWIDTH 26 0
BBX 22 35 2 -1
BITMAP
00FE00
07FF80
0FFFC0
1FFFE0
3FFFF0
3F87F8
7F03F8
7F01FC
7E01FC
FE00FC
FE00FC
FE00FC
FC00FC
FC00FC
FC00FC
FC00FC
FC00FC
FC00FC
FC00FC
FC00FC
FC00FC
FC00FC
FC00FC
FC00FC
FE00FC
FE00FC
7E01FC
7F01F8
7F01F8
3F87F8
3FFFF0
1FFFE0
0FFFC0
07FF80
00FE00
ENDCHAR
STARTCHAR one
ENCODING 49
SWIDTH 287 0
DWIDTH 14 0
BBX 11 34 0 0
BITMAP
01E0
01E0
03E0
07E0
3FE0
FFE0
FFE0
FFE0
FFE0
07E0
07E0
07E0
07E0
07E0
07E0
07E0
07E0
07E0
07E0
07E0
07E0
07E0
07E0
07E0
07E0
07E0
07E0
07E0
07E0
07E0
07E0
07E0
07E0
07E0
ENDCHAR
STARTCHAR two
ENCODING 50
SWIDTH 447 0
DWIDTH 22 0
BBX 19 34 2 0
BITMAP
07F800
3FFE00
7FFF00
7FFF80
7FFF80
7C3FC0
700FC0
400FC0
000FC0
000FC0
000FC0
001FC0
001F80
003F80
007F80
007F00
00FE00
01FE00
01FC00
03F800
07F800
07F000
0FE000
1FE000
1FC000
3F8000
7F8000
7F0000
FF0000
FFFFE0
FFFFE0
FFFFE0
FFFFE0
FFFFE0
ENDCHAR
STARTCHAR three
ENCODING 51
SWIDTH 428 0
DWIDTH 21 0
BBX 18 35 2 -1
BITMAP
1FC000
FFE000
FFF800
FFFC00
FFFC00
E1FE00
807E00
007E00
007E00
007E00
007E00
007E00
01FC00
07FC00
07F800
07FC00
07FE00
07FF00
01FF00
003F80
003F80
001F80
001F80
001FC0
001FC0
001F80
003F80
803F80
E0FF80
FFFF00
FFFF00
FFFE00
FFFC00
FFF800
1FC000
ENDCHAR
STARTCHAR four
ENCODING 52
SWIDTH 488 0
DWIDTH 24 0
BBX 21 33 2 0
BITMAP
001FC0
001FC0
003FC0
003FC0
007FC0
00FFC0
00FFC0
01FFC0
03FFC0
03FFC0
07FFC0
07EFC0
0FEFC0
1FCFC0
1F8FC0
3F8FC0
3F0FC0
7F0FC0
FE0FC0
FC0FC0
FFFFF8
FFFFF8
FFFFF8
FFFFF8
FFFFF8
000FC0
000FC0
000FC0
000FC0
000FC0
000FC0
000FC0
000FC0
ENDCHAR
STARTCHAR five
ENCODING 53
SWIDTH 451 0
DWIDTH 23 0
BBX 18 34 2 -1
BITMAP
3FFF80
3FFF80
3FFF80
7FFF80
7FFF80
7FFF80
7E0000
7E0000
7C0000
7C0000
7C0000
7C0000
7FF000
FFFC00
FFFE00
7FFF00
3FFF80
107F80
001FC0
001FC0
000FC0
000FC0
000FC0
000FC0
000FC0
001FC0
003FC0
E07F80
FFFF80
FFFF00
FFFF00
FFFC00
FFF800
1FE000
ENDCHAR
STARTCHAR six
ENCODING 54
SWIDTH 506 0
DWIDTH 25 0
BBX 21 34 2 0
BITMAP
007F00
01FFC0
07FFC0
0FFFC0
1FFFC0
1FFFC0
3FE0C0
3F8000
7F0000
7F0000
FE0000
FE0000
FE7E00
FDFF80
FFFFC0
FFFFE0
FFFFF0
FFFFF0
FF07F8
FC01F8
FC01F8
FC01F8
FC01F8
FC01F8
7E01F8
7E01F8
7F03F8
3F87F0
3FFFF0
1FFFE0
0FFFE0
07FFC0
03FF00
00FC00
ENDCHAR
STARTCHAR seven
ENCODING 55
SWIDTH 410 0
DWIDTH 21 0
BBX 18 33 1 0
BITMAP
FFFFC0
FFFFC0
FFFFC0
FFFFC0
FFFFC0
000FC0
001FC0
001F80
003F80
003F00
003F00
007F00
007E00
00FE00
00FC00
01FC00
01FC00
01F800
03F800
03F000
07F000
07E000
07E000
0FE000
0FC000
1FC000
1F8000
3F8000
3F8000
3F0000
7F0000
7E0000
FE0000
ENDCHAR
STARTCHAR eight
ENCODING 56
SWIDTH 499 0
DWIDTH 25 0
BBX 21 34 2 0
BITMAP
01FC00
07FF00
0FFF80
1FFFC0
3FFFE0
3F0FE0
7F07E0
7E03F0
7E03F0
7E03F0
7E03F0
7E07F0
3F07E0
3FFFE0
1FFFC0
1FFF80
3FFFE0
7FFFF0
FF07F0
FE03F8
FE03F8
FC01F8
FC01F8
FC01F8
FC01F8
FC01F8
FC03F8
FE03F8
7F07F0
7FFFF0
3FFFE0
1FFFC0
0FFF80
01FC00
ENDCHAR
STARTCHAR nine
ENCODING 57
SWIDTH 495 0
DWIDTH 25 0
BBX 21 34 2 0
BITMAP
01F800
07FE00
1FFF00
3FFF80
3FFFC0
7FFFE0
7F0FE0
FE07F0
FC03F0
FC03F0
FC01F8
FC01F8
F801F8
F801F8
FC01F8
FC03F8
FF0FF8
7FFFF8
7FFFF8
3FFFF8
1FFFF8
0FFFF8
03F3F8
0003F0
0007F0
0007F0
000FE0
103FE0
1FFFC0
1FFF80
1FFF80
1FFF00
1FFC00
07F000
ENDCHAR
STARTCHAR colon
ENCODING 58
SWIDTH 233 0
DWIDTH 12 0
BBX 8 21 2 0
BITMAP
3C
7E
FE
FF
FF
FE
7E
3C
00
00
00
00
00
3C
7E
FE
FF
FF
FE
7E
3C
ENDCHAR
STARTCHAR semicolon
ENCODING 59
SWIDTH 233 0
DWIDTH 12 0
BBX 8 25 2 -4
BITMAP
3C
7E
FE
FE
FF
FE
7E
3C
00
00
00
00
00
3C
7E
FE
FF
FF
FF
FE
7E
1E
3C
7C
F8
ENDCHAR
STARTCHAR less
ENCODING 60
SWIDTH 572 0
DWIDTH 29 0
BBX 23 26 3 5
BITMAP
000002
00000E
00003E
0001FE
0007FE
001FFE
007FFC
03FFF0
0FFF80
3FFE00
FFF000
FFC000
FE0000
FE0000
FFC000
FFF000
3FFE00
0FFF80
03FFF0
007FFC
001FFE
0007FE
0001FE
00003E
00000E
000002
ENDCHAR
STARTCHAR equal
ENCODING 61
SWIDTH 572 0
DWIDTH 29 0
BBX 24 17 3 9
BITMAP
FFFFFF
FFFFFF
FFFFFF
FFFFFF
FFFFFF
FFFFFF
000000
000000
000000
000000
000000
FFFFFF
FFFFFF
FFFFFF
FFFFFF
FFFFFF
FFFFFF
ENDCHAR
STARTCHAR greater
ENCODING 62
SWIDTH 572 0
DWIDTH 29 0
BBX 23 26 3 5
BITMAP
800000
E00000
FC0000
FF0000
FFC000
FFF000
7FFE00
0FFF80
03FFE0
007FFC
001FFE
0003FE
0000FE
0000FE
0003FE
001FFE
007FFC
03FFE0
0FFF80
7FFE00
FFF000
FFC000
FF0000
FC0000
E00000
800000
ENDCHAR
STARTCHAR question
ENCODING 63
SWIDTH 382 0
DWIDTH 19 0
BBX 16 34 2 0
BITMAP
1FC0
FFF0
FFFC
FFFC
FFFE
F0FE
807E
003E
007F
007E
00FE
00FE
01FC
03F8
07F0
0FE0
0FE0
1FC0
1F80
1F80
1F80
1F80
1F80
1F80
0000
0000
0E00
1F80
3F80
3FC0
3FC0
3F80
1F80
0E00
ENDCHAR
STARTCHAR at
ENCODING 64
SWIDTH 683 0
DWIDTH 34 0
BBX 31 37 2 -1
BITMAP
000FF000
003FFE00
00FFFF80
01FFFFC0
07F80FE0
07E003F0
0F8001F0
1F0000F8
3E000078
3C07C03C
781FEF3C
783FFE3C
F07E7E1E
F07C3E1E
F0F83E1E
E0F03E1E
E1F03C1E
E1F03C1E
E1F03C1E
E1E03C1C
E1E0783C
E1E0783C
F1E07878
F1F0F878
71F1F8F0
78FFFFF0
78FFBFE0
3C7F3FC0
3C1E1F00
1E000040
1F000060
0F8000F0
07E003E0
03F80FC0
00FFFF80
003FFE00
000FF000
ENDCHAR
STARTCHAR A
ENCODING 65
SWIDTH 528 0
DWIDTH 26 0
BBX 25 33 1 0
BITMAP
00FF0000
00FF0000
00FF8000
00FF8000
01FF8000
01FF8000
01FFC000
01FFC000
03FFC000
03FFC000
03FFE000
07F7E000
07E7E000
07E7E000
07E7F000
0FC3F000
0FC3F000
0FC3F800
0FC3F800
1F81F800
1F81F800
1FFFFF00
1FFFFF00
3FFFFF00
3FFFFF00
3FFFFF00
7E00FE00
7E007E00
7E007F00
7E007F00
FC007F00
FC003F00
FC003F80
ENDCHAR
STARTCHAR B
ENCODING 66
SWIDTH 500 0
DWIDTH 25 0
BBX 21 33 3 0
BITMAP
FFF800
FFFE00
FFFF80
FFFFC0
FFFFC0
FC1FE0
FC0FE0
FC07E0
FC07E0
FC07E0
FC07E0
FC0FC0
FC1FC0
FFFF80
FFFF00
FFFFC0
FFFFE0
FFFFE0
FC0FF0
FC07F0
FC03F0
FC03F8
FC03F8
FC03F8
FC03F8
FC03F0
FC07F0
FC0FF0
FFFFE0
FFFFC0
FFFF80
FFFF00
FFFC00
ENDCHAR
STARTCHAR C
ENCODING 67
SWIDTH 417 0
DWIDTH 21 0
BBX 19 34 1 0
BITMAP
003F00
01FFE0
03FFE0
07FFE0
0FFFE0
1FFFE0
1FE060
3FC000
3F8000
7F0000
7F0000
7E0000
FE0000
FE0000
FE0000
FE0000
FE0000
FE0000
FE0000
FE0000
FE0000
FE0000
7E0000
7F0000
7F0000
7F8000
3F8000
3FE0E0
1FFFE0
1FFFE0
0FFFE0
07FFE0
03FFE0
007F00
ENDCHAR
STARTCHAR D
ENCODING 68
SWIDTH 528 0
DWIDTH 26 0
BBX 22 33 3 0
BITMAP
FFF800
FFFF00
FFFF80
FFFFC0
FFFFE0
FC1FF0
FC07F0
FC03F8
FC01F8
FC01F8
FC01F8
FC00FC
FC00FC
FC00FC
FC00FC
FC00FC
FC00FC
FC00FC
FC00FC
FC00FC
FC00FC
FC00FC
FC00FC
FC01F8
FC01F8
FC03F8
FC07F8
FC1FF0
FFFFF0
FFFFE0
FFFFC0
FFFF80
FFFC00
ENDCHAR
STARTCHAR E
ENCODING 69
SWIDTH 404 0
DWIDTH 20 0
BBX 17 33 2 0
BITMAP
FFFF80
7FFF80
7FFF80
7FFF80
7FFF80
7E0000
7E0000
7E0000
7E0000
7E0000
7E0000
7E0000
7E0000
7FFE00
7FFE00
7FFE00
7FFE00
7FFE00
7E0000
7E0000
7E0000
7E0000
7E0000
7E0000
7E0000
7E0000
7E0000
7E0000
7FFF80
7FFF80
7FFF80
7FFF80
FFFF80
ENDCHAR
STARTCHAR F
ENCODING 70
SWIDTH 382 0
DWIDTH 19 0
BBX 16 33 2 0
BITMAP
FFFF
7FFF
7FFF
7FFF
7FFF
7E00
7E00
7E00
7E00
7E00
7E00
7E00
7E00
7FFE
7FFE
7FFE
7FFE
7FFE
7E00
7E00
7E00
7E00
7E00
7E00
7E00
7E00
7E00
7E00
7E00
7E00
7E00
7E00
FE00
ENDCHAR
STARTCHAR G
ENCODING 71
SWIDTH 529 0
DWIDTH 26 0
BBX 23 35 1 -1
BITMAP
003F80
01FFE0
03FFF8
0FFFF8
0FFFF8
1FE078
3FC038
3F8008
7F0000
7F0000
7E0000
7E0000
FE0000
FE0000
FE0000
FE0000
FE0000
FE0000
FE0000
FE0000
FE007E
FE007E
FE007E
7E007E
7E007E
7F007E
7F007E
3F007E
3F80FE
1FC1FE
1FFFFE
0FFFFE
07FFEE
03FFC6
007F02
ENDCHAR
STARTCHAR H
ENCODING 72
SWIDTH 544 0
DWIDTH 27 0
BBX 23 33 3 0
BITMAP
FC01FC
FC01F8
FC01F8
FC01F8
FC01F8
FC01F8
FC01F8
FC01F8
FC01F8
FC01F8
FC01F8
FC01F8
FC01F8
FFFFFE
FFFFFE
FFFFFE
FFFFFE
FFFFFE
FC01F8
FC01F8
FC01F8
FC01F8
FC01F8
FC01F8
FC01F8
FC01F8
FC01F8
FC01F8
FC01F8
FC01F8
FC01F8
FC01F8
FC01FC
ENDCHAR
STARTCHAR I
ENCODING 73
SWIDTH 232 0
DWIDTH 12 0
BBX 7 33 2 0
BITMAP
FE
7E
7E
7E
7E
7E
7E
7E
7E
7E
7E
7E
7E
7E
7E
7E
7E
7E
7E
7E
7E
7E
7E
7E
7E
7E
7E
7E
7E
7E
7E
7E
FE
ENDCHAR
STARTCHAR J
ENCODING 74
SWIDTH 373 0
DWIDTH 19 0
BBX 16 33 1 0
BITMAP
FFFF
FFFE
FFFE
FFFE
FFFE
FFFE
007E
007E
007E
007E
007E
007E
007E
007E
007E
007E
007E
007E
007E
007E
007E
007E
007E
007E
007E
00FE
01FC
83FC
FFF8
FFF0
FFE0
FFC0
FE00
ENDCHAR
STARTCHAR K
ENCODING 75
SWIDTH 489 0
DWIDTH 24 0
BBX 21 33 3 0
BITMAP
FC03F8
FC07F0
FC0FE0
FC0FC0
FC1FC0
FC3F80
FC3F00
FC7F00
FCFE00
FCFC00
FDF800
FFF800
FFF000
FFE000
FFE000
FFC000
FFE000
FFF000
FFF000
FFF800
FDF800
FDFC00
FCFE00
FC7E00
FC7F00
FC3F00
FC3F80
FC1FC0
FC1FC0
FC0FE0
FC07E0
FC07F0
FC07F8
ENDCHAR
STARTCHAR L
ENCODING 76
SWIDTH 402 0
DWIDTH 20 0
BBX 17 33 3 0
BITMAP
FC0000
FC0000
FC0000
FC0000
FC0000
FC0000
FC0000
FC0000
FC0000
FC0000
FC0000
FC0000
FC0000
FC0000
FC0000
FC0000
FC0000
FC0000
FC0000
FC0000
FC0000
FC0000
FC0000
FC0000
FC0000
FC0000
FC0000
FC0000
FFFF80
FFFF80
FFFF80
FFFF80
FFFF80
ENDCHAR
STARTCHAR M
ENCODING 77
SWIDTH 619 0
DWIDTH 31 0
BBX 27 33 2 0
BITMAP
FE0007E0
FE0007C0
7E000FC0
7F000FC0
7F001FC0
7F001FC0
7F801FC0
7F803FC0
7FC03FC0
7FC07FC0
7FC07FC0
7FE07FC0
7FE0FFC0
7FF0FFC0
7FF1FFC0
7FF9FFC0
7FF9FFC0
7FFBFFC0
7EFFEFC0
7EFFEFC0
7EFFEFC0
7E7FCFC0
7E7FCFC0
7E3F8FC0
7E3F8FC0
7E3F8FC0
7E1F0FC0
7E1F0FC0
7E0E0FC0
7E0E0FC0
7E000FC0
7E000FC0
7E000FC0
ENDCHAR
STARTCHAR N
ENCODING 78
SWIDTH 524 0
DWIDTH 26 0
BBX 23 33 1 0
BITMAP
FE00FE
7F00FE
7F00FC
3F80FC
3FC07C
3FC07C
3FE07C
3FE07C
3FF07C
3FF87C
3FF87C
3FFC7C
3FFC7C
3F7E7C
3F7F7C
3F3F7C
3F3FFC
3F1FFC
3F0FFC
3F0FFC
3F07FC
3F03FC
3F03FC
3F01FC
3F01FC
3F00FC
3F007C
3F007C
3F007C
3F00FC
3F00FC
7F00FE
7F00FE
ENDCHAR
STARTCHAR O
ENCODING 79
SWIDTH 529 0
DWIDTH 26 0
BBX 23 35 2 -1
BITMAP
00FE00
07FF80
0FFFE0
1FFFF0
3FFFF8
7F87F8
7F01FC
7E01FC
FE00FC
FE00FE
FC00FE
FC00FE
FC007E
FC007E
FC007E
FC007E
FC007E
FC007E
FC007E
FC007E
FC007E
FC007E
FC007E
FC00FE
FC00FE
FC00FE
FE00FC
7E00FC
7F01FC
7F83F8
3FFFF0
1FFFF0
0FFFE0
07FF80
00FE00
ENDCHAR
STARTCHAR P
ENCODING 80
SWIDTH 473 0
DWIDTH 24 0
BBX 20 33 3 0
BITMAP
FFE000
FFFC00
FFFE00
FFFF80
FFFF80
FC3FC0
FC0FE0
FC0FE0
FC07E0
FC07F0
FC07F0
FC07F0
FC07F0
FC07E0
FC07E0
FC0FE0
FC1FC0
FC3FC0
FC7F80
FDFF00
FFFF00
FFFE00
FFF800
FFF000
FFC000
FF0000
FC0000
FC0000
FC0000
FC0000
FC0000
FC0000
FC0000
ENDCHAR
STARTCHAR Q
ENCODING 81
SWIDTH 529 0
DWIDTH 26 0
BBX 24 35 2 -1
BITMAP
00FE00
07FF80
0FFFE0
1FFFF0
3FFFF0
7F87F8
7F01FC
FE01FC
FE00FC
FC00FE
FC00FE
FC00FE
FC00FE
FC007E
FC007E
FC007E
FC007E
FC007E
FC007E
FC007E
FC007E
FC00FE
FC04FE
FC0EFE
FC1FFE
FE1FFC
FE3FFC
7F1FFC
7F8FF8
7FFFFE
3FFFFF
1FFFFE
0FFFFC
07FFB8
00FE08
ENDCHAR
STARTCHAR R
ENCODING 82
SWIDTH 473 0
DWIDTH 24 0
BBX 20 33 3 0
BITMAP
FFE000
FFFC00
FFFE00
FFFF80
FFFF80
FC3FC0
FC0FE0
FC0FE0
FC07E0
FC07F0
FC07F0
FC07F0
FC07F0
FC07E0
FC07E0
FC0FE0
FC1FC0
FC3FC0
FC7F80
FDFF00
FFFF00
FFFF00
FFFF00
FFFF00
FFDF80
FF1F80
FC1FC0
FC0FC0
FC0FC0
FC0FE0
FC07E0
FC07E0
FC07F0
ENDCHAR
STARTCHAR S
ENCODING 83
SWIDTH 418 0
DWIDTH 21 0
BBX 19 34 1 0
BITMAP
03FC00
1FFF00
3FFF80
7FFF80
7FFF80
FE0780
FC0180
FC0000
FC0000
FE0000
FF0000
7F8000
7FC000
3FF000
1FFC00
0FFE00
07FF00
01FF80
00FFC0
003FC0
001FC0
000FE0
000FE0
000FE0
000FE0
000FE0
801FE0
E03FC0
FFFFC0
FFFF80
FFFF80
FFFF00
FFFC00
1FE000
ENDCHAR
STARTCHAR T
ENCODING 84
SWIDTH 427 0
DWIDTH 21 0
BBX 21 33 0 0
BITMAP
FFFFF8
FFFFF8
FFFFF8
FFFFF8
FFFFF8
00FC00
00FC00
00FC00
00FC00
00FC00
00FC00
00FC00
00FC00
00FC00
00FC00
00FC00
00FC00
00FC00
00FC00
00FC00
00FC00
00FC00
00FC00
00FC00
00FC00
00FC00
00FC00
00FC00
00FC00
00FC00
00FC00
00FC00
01FC00
ENDCHAR
STARTCHAR U
ENCODING 85
SWIDTH 538 0
DWIDTH 27 0
BBX 23 34 2 -1
BITMAP
FC00FE
FC007E
FC007E
FC007E
FC007E
FC007E
FC007E
FC007E
FC007E
FC007E
FC007E
FC007E
FC007E
FC007E
FC007E
FC007E
FC007E
FC007E
FC007E
FC007E
FC007E
FC007E
FC007E
FC007E
FE00FE
FE00FE
7E00FC
7F01FC
3F83F8
3FFFF8
1FFFF0
0FFFE0
07FF80
00FE00
ENDCHAR
STARTCHAR V
ENCODING 86
SWIDTH 522 0
DWIDTH 26 0
BBX 25 33 1 0
BITMAP
FC001F80
FE003F00
FE003F00
FE003F00
7E003E00
7F007E00
7F007E00
3F007E00
3F00FC00
3F80FC00
3F80FC00
1F80FC00
1F81F800
1FC1F800
1FC1F800
0FC3F000
0FC3F000
0FE3F000
07E3F000
07E7E000
07E7E000
07F7E000
03FFE000
03FFC000
03FFC000
03FFC000
01FFC000
01FF8000
01FF8000
01FF8000
00FF0000
00FF0000
00FF0000
ENDCHAR
STARTCHAR W
ENCODING 87
SWIDTH 720 0
DWIDTH 36 0
BBX 35 33 1 0
BITMAP
FC07E00FE0
FC07F00FE0
FC03F00FC0
FE03F00FC0
7E03F00FC0
7E03F80FC0
7E03F81F80
7E03F81F80
7F07F81F80
3F07FC1F80
3F07FC1F80
3F07FC3F00
3F0FFC3F00
3F0FFC3F00
1F8FFE3F00
1F8FFE3F00
1F9FFE7E00
1F9FBE7E00
0F9FBF7E00
0FDF3F7E00
0FFF3F7C00
0FFF1FFC00
0FFF1FFC00
07FE1FFC00
07FE1FFC00
07FE0FF800
07FE0FF800
07FC0FF800
03FC0FF800
03FC07F800
03FC07F000
03F807F000
03F807F000
ENDCHAR
STARTCHAR X
ENCODING 88
SWIDTH 494 0
DWIDTH 25 0
BBX 23 33 1 0
BITMAP
FE00FE
7E01FC
7F01F8
3F03F8
3F83F0
1F87F0
1FC7E0
0FCFE0
0FEFC0
07FFC0
07FF80
03FF80
03FF00
01FF00
01FE00
00FE00
00FE00
00FE00
01FF00
01FF00
03FF80
03FF80
07FFC0
07EFC0
0FCFE0
0FC7E0
1F87F0
1F83F0
3F03F8
3F01F8
7E01FC
7E00FC
FE00FE
ENDCHAR
STARTCHAR Y
ENCODING 89
SWIDTH 480 0
DWIDTH 24 0
BBX 22 33 1 0
BITMAP
FC00FC
FC00FC
7C00F8
7E01F8
3E01F0
3F03F0
3F03F0
1F87E0
1F87E0
0F87C0
0FCFC0
07CF80
07FF80
07FF80
03FF00
03FF00
01FE00
01FE00
00FC00
00FC00
00FC00
00FC00
00FC00
00FC00
00FC00
00FC00
00FC00
00FC00
00FC00
00FC00
00FC00
00FC00
00FC00
ENDCHAR
STARTCHAR Z
ENCODING 90
SWIDTH 423 0
DWIDTH 21 0
BBX 19 33 1 0
BITMAP
7FFFE0
7FFFE0
7FFFE0
7FFFE0
7FFFE0
000FE0
000FC0
001FC0
001F80
003F80
003F00
007F00
00FE00
00FC00
01FC00
01F800
03F800
03F000
07F000
07E000
0FE000
0FC000
1FC000
3F8000
3F0000
7F0000
7E0000
FE0000
FFFFE0
FFFFE0
FFFFE0
FFFFE0
FFFFE0
ENDCHAR
STARTCHAR bracketleft
ENCODING 91
SWIDTH 334 0
DWIDTH 17 0
BBX 9 42 5 -4
BITMAP
FF80
FF80
FF80
FF80
FF80
FC00
FC00
FC00
FC00
FC00
FC00
FC00
FC00
FC00
FC00
FC00
FC00
FC00
FC00
FC00
FC00
FC00
FC00
FC00
FC00
FC00
FC00
FC00
FC00
FC00
FC00
FC00
FC00
FC00
FC00
FC00
FC00
FF80
FF80
FF80
FF80
FF80
ENDCHAR
STARTCHAR backslash
ENCODING 92
SWIDTH 340 0
DWIDTH 17 0
BBX 17 39 0 -3
BITMAP
080000
380000
FC0000
FC0000
7C0000
7E0000
3E0000
3E0000
3E0000
1F0000
1F0000
1F0000
0F8000
0F8000
0F8000
07C000
07C000
07C000
03E000
03E000
03E000
01F000
01F000
01F000
00F800
00F800
00F800
007C00
007C00
007C00
003E00
003E00
003E00
001F00
001F00
001F00
001F80
000E00
000800
ENDCHAR
STARTCHAR bracketright
ENCODING 93
SWIDTH 333 0
DWIDTH 17 0
BBX 10 42 2 -4
BITMAP
FFC0
FFC0
FFC0
FFC0
FFC0
0FC0
0FC0
0FC0
0FC0
0FC0
0FC0
0FC0
0FC0
0FC0
0FC0
0FC0
0FC0
0FC0
0FC0
0FC0
0FC0
0FC0
0FC0
0FC0
0FC0
0FC0
0FC0
0FC0
0FC0
0FC0
0FC0
0FC0
0FC0
0FC0
0FC0
0FC0
0FC0
FFC0
FFC0
FFC0
FFC0
FFC0
ENDCHAR
STARTCHAR asciicircum
ENCODING 94
SWIDTH 584 0
DWIDTH 29 0
BBX 23 19 3 15
BITMAP
007C00
00FE00
00FE00
01FF00
01FF00
03FF80
03EF80
03EFC0
07E7C0
07C7E0
0FC7E0
0F83F0
1F83F0
1F81F8
3F01F8
3F01FC
7E00FC
7E00FC
FE007E
ENDCHAR
STARTCHAR underscore
ENCODING 95
SWIDTH 500 0
DWIDTH 25 0
BBX 25 5 0 -12
BITMAP
FFFFFF80
FFFFFF80
FFFFFF80
FFFFFF80
FFFFFF80
ENDCHAR
STARTCHAR grave
ENCODING 96
SWIDTH 271 0
DWIDTH 14 0
BBX 7 9 3 26
BITMAP
10
38
F8
7C
3C
3C
1E
0E
0C
ENDCHAR
STARTCHAR a
ENCODING 97
SWIDTH 397 0
DWIDTH 20 0
BBX 17 22 1 0
BITMAP
07F800
1FFE00
1FFE00
1FFF00
1FFF00
103F80
001F80
001F80
07FF80
1FFF80
3FFF80
7FFF80
7FFF80
7E1F80
FC1F80
FC1F80
FC3F80
7FFF80
7FFF80
3FFF80
1FEF80
0F8F80
ENDCHAR
STARTCHAR b
ENCODING 98
SWIDTH 437 0
DWIDTH 22 0
BBX 18 33 3 0
BITMAP
F80000
F80000
F80000
F80000
F80000
F80000
F80000
F80000
F80000
F80000
F80000
F9F000
FFFC00
FFFE00
FFFF00
FFFF00
FE3F80
F81F80
F80F80
F80FC0
F80FC0
F80FC0
F80FC0
F80FC0
F80F80
F81F80
F81F80
FC3F80
FFFF00
FFFF00
FFFE00
FFFC00
F9F000
ENDCHAR
STARTCHAR c
ENCODING 99
SWIDTH 355 0
DWIDTH 18 0
BBX 15 22 2 0
BITMAP
03F0
0FFC
1FFC
3FFC
7FFC
7F0C
FE04
FC00
FC00
F800
F800
F800
F800
FC00
FC00
FE02
7F0E
7FFE
3FFE
1FFE
0FFE
03F0
ENDCHAR
STARTCHAR d
ENCODING 100
SWIDTH 436 0
DWIDTH 22 0
BBX 18 33 2 0
BITMAP
000FC0
000FC0
000FC0
000FC0
000FC0
000FC0
000FC0
000FC0
000FC0
000FC0
000FC0
07EFC0
0FFFC0
1FFFC0
3FFFC0
7FFFC0
7F1FC0
FE0FC0
FC0FC0
FC0FC0
FC0FC0
F80FC0
F80FC0
FC0FC0
FC0FC0
FC0FC0
FE0FC0
7E1FC0
7FFFC0
3FFFC0
1FFFC0
0FF7C0
07E7C0
ENDCHAR
STARTCHAR e
ENCODING 101
SWIDTH 405 0
DWIDTH 20 0
BBX 17 22 2 0
BITMAP
03F000
0FF800
1FFE00
3FFE00
7FFF00
7E1F00
FC1F80
FC0F80
FFFF80
FFFF80
FFFF80
FFFF80
FFFF80
FC0000
FC0000
7E0000
7F0200
7FFE00
3FFE00
1FFE00
0FFE00
03F800
ENDCHAR
STARTCHAR f
ENCODING 102
SWIDTH 280 0
DWIDTH 14 0
BBX 14 34 0 0
BITMAP
01F8
03FC
07FC
0FFC
0FFC
1F84
1F80
1F00
1F00
1F00
1F00
1F00
FFF8
FFF8
FFF8
FFF8
FFF8
1F00
1F00
1F00
1F00
1F00
1F00
1F00
1F00
1F00
1F00
1F00
1F00
1F00
1F00
1F00
1F00
1F00
ENDCHAR
STARTCHAR g
ENCODING 103
SWIDTH 415 0
DWIDTH 21 0
BBX 19 34 1 -12
BITMAP
03F020
0FFFE0
1FFFE0
3FFFE0
7FFFE0
7E1F80
7C0F80
FC0F80
7C0F80
7C0F80
7C0F80
7E1F80
3FFF00
1FFE00
0FFC00
0FF000
1F8000
1F8000
1F8000
1F8000
0FF000
07FE00
1FFF80
3FFFC0
7FFFC0
FC07E0
FC03E0
F803E0
FC07E0
FE0FC0
7FFFC0
3FFF80
1FFF00
07FC00
ENDCHAR
STARTCHAR h
ENCODING 104
SWIDTH 437 0
DWIDTH 22 0
BBX 18 33 3 0
BITMAP
F80000
F80000
F80000
F80000
F80000
F80000
F80000
F80000
F80000
F80000
F80000
F9F000
FFFC00
FFFE00
FFFF00
FFFF00
FE3F80
F81F80
F80F80
F80FC0
F80FC0
F80FC0
F80FC0
F80FC0
F80FC0
F80FC0
F80FC0
F80FC0
F80FC0
F80FC0
F80FC0
F80FC0
F80FC0
ENDCHAR
STARTCHAR i
ENCODING 105
SWIDTH 195 0
DWIDTH 10 0
BBX 7 34 2 0
BITMAP
78
FC
FC
FC
FE
FC
78
00
00
00
00
00
FC
FC
FC
FC
FC
FC
FC
FC
FC
FC
FC
FC
FC
FC
FC
FC
FC
FC
FC
FC
FC
FC
ENDCHAR
STARTCHAR j
ENCODING 106
SWIDTH 194 0
DWIDTH 10 0
BBX 9 45 -1 -11
BITMAP
0F00
1F80
1F80
3F80
1F80
1F80
0F00
0000
0000
0000
0000
0000
1F80
1F80
1F80
1F80
1F80
1F80
1F80
1F80
1F80
1F80
1F80
1F80
1F80
1F80
1F80
1F80
1F80
1F80
1F80
1F80
1F80
1F80
1F80
1F80
1F80
3F00
7F00
FF00
FE00
FE00
FC00
F800
E000
ENDCHAR
STARTCHAR k
ENCODING 107
SWIDTH 396 0
DWIDTH 20 0
BBX 18 33 2 0
BITMAP
FC0000
7C0000
7C0000
7C0000
7C0000
7C0000
7C0000
7C0000
7C0000
7C0000
7C0000
7C3F80
7C3F00
7C7E00
7CFC00
7DF800
7FF800
7FF000
7FE000
7FC000
7FE000
7FE000
7FF000
7DF000
7DF800
7CFC00
7CFC00
7C7E00
7C3E00
7C3F00
7C1F00
7C1F80
FC0FC0
ENDCHAR
STARTCHAR l
ENCODING 108
SWIDTH 195 0
DWIDTH 10 0
BBX 6 33 2 0
BITMAP
FC
FC
FC
FC
FC
FC
FC
FC
FC
FC
FC
FC
FC
FC
FC
FC
FC
FC
FC
FC
FC
FC
FC
FC
FC
FC
FC
FC
FC
FC
FC
FC
FC
ENDCHAR
STARTCHAR m
ENCODING 109
SWIDTH 644 0
DWIDTH 32 0
BBX 28 22 3 0
BITMAP
F9F07E00
FFFDFF00
FFFFFF80
FFFFFFC0
FFFFFFC0
FE3F87E0
F81F07E0
F81F03E0
F81F03E0
F81F03F0
F81F03F0
F81F83F0
F81F83F0
F81F83F0
F81F83F0
F81F83F0
F81F83F0
F81F83F0
F81F83F0
F81F83F0
F81F83F0
FC1F83F0
ENDCHAR
STARTCHAR n
ENCODING 110
SWIDTH 454 0
DWIDTH 23 0
BBX 18 22 3 0
BITMAP
F9F000
FFFC00
FFFE00
FFFF00
FFFF00
FE3F80
F81F80
F80F80
F80FC0
F80FC0
F80FC0
F80FC0
F80FC0
F80FC0
F80FC0
F80FC0
F80FC0
F80FC0
F80FC0
F80FC0
F80FC0
F80FC0
ENDCHAR
STARTCHAR o
ENCODING 111
SWIDTH 423 0
DWIDTH 21 0
BBX 18 22 2 0
BITMAP
07F000
1FFC00
3FFF00
7FFF00
7FFF80
FE1F80
FC0FC0
FC0FC0
F80FC0
F80FC0
F80FC0
F80FC0
F80FC0
F80FC0
FC0FC0
FC0F80
7E1F80
7FFF80
3FFF00
3FFE00
1FFC00
03F000
ENDCHAR
STARTCHAR p
ENCODING 112
SWIDTH 437 0
DWIDTH 22 0
BBX 18 34 3 -12
BITMAP
F9F000
FFFC00
FFFE00
FFFF00
FFFF00
FE3F80
F81F80
F81F80
F80F80
F80FC0
F80FC0
F80FC0
F80FC0
F80FC0
F81F80
F81F80
FE3F80
FFFF00
FFFF00
FFFE00
FFFC00
F9F000
F80000
F80000
F80000
F80000
F80000
F80000
F80000
F80000
F80000
F80000
F80000
F80000
ENDCHAR
STARTCHAR q
ENCODING 113
SWIDTH 435 0
DWIDTH 22 0
BBX 18 34 2 -12
BITMAP
07CFC0
0FFFC0
3FFFC0
3FFFC0
7FFFC0
7E1FC0
FC0FC0
FC0FC0
FC0FC0
F80FC0
F80FC0
F80FC0
F80FC0
F80FC0
FC0FC0
FC0FC0
FE1FC0
7FFFC0
3FFFC0
3FFFC0
1FFFC0
07CFC0
000FC0
000FC0
000FC0
000FC0
000FC0
000FC0
000FC0
000FC0
000FC0
000FC0
000FC0
000FC0
ENDCHAR
STARTCHAR r
ENCODING 114
SWIDTH 284 0
DWIDTH 14 0
BBX 11 22 2 0
BITMAP
FDE0
FFE0
FFE0
FFE0
FFE0
FE20
FC00
FC00
FC00
FC00
FC00
FC00
FC00
FC00
FC00
FC00
FC00
FC00
FC00
FC00
FC00
FC00
ENDCHAR
STARTCHAR s
ENCODING 115
SWIDTH 341 0
DWIDTH 17 0
BBX 14 22 2 0
BITMAP
0FC0
3FF8
7FF8
FFF8
F838
F808
FC00
FE00
FF80
7FE0
3FF0
1FF8
07F8
03FC
00FC
80FC
C0FC
FFFC
FFF8
FFF8
FFE0
3F80
ENDCHAR
STARTCHAR t
ENCODING 116
SWIDTH 280 0
DWIDTH 14 0
BBX 13 26 1 0
BITMAP
3F00
3F00
3F00
3F00
FFF0
FFF0
FFF0
FFF0
FFF0
3F00
3F00
3F00
3F00
3F00
3F00
3F00
3F00
3F00
3F00
3F00
3F08
3FF8
1FF8
1FF8
0FF8
03F0
ENDCHAR
STARTCHAR u
ENCODING 117
SWIDTH 449 0
DWIDTH 22 0
BBX 17 22 3 0
BITMAP
FC0F80
F80F80
F80F80
F80F80
F80F80
F80F80
F80F80
F80F80
F80F80
F80F80
F80F80
F80F80
F80F80
F80F80
FC0F80
FC0F80
FE3F80
7FFF80
7FFF80
3FFF80
1FEF80
0FCF80
ENDCHAR
STARTCHAR v
ENCODING 118
SWIDTH 401 0
DWIDTH 20 0
BBX 19 22 1 0
BITMAP
FC07E0
FC07C0
7C0FC0
7E0F80
7E0F80
3E0F80
3E1F80
3F1F00
3F1F00
1F1F00
1F3E00
1FBE00
0FBE00
0FFE00
0FFC00
07FC00
07FC00
07F800
07F800
03F800
03F000
03F000
ENDCHAR
STARTCHAR w
ENCODING 119
SWIDTH 602 0
DWIDTH 30 0
BBX 28 22 1 0
BITMAP
FC1F81F0
7C1F81F0
7C1F83F0
7C1FC3F0
3E1FC3E0
3E1FC3E0
3E3FC7E0
3E3FC7E0
1F3FE7C0
1F3FE7C0
1F7FEFC0
1F7DEFC0
0FFDFF80
0FFDFF80
0FFCFF80
07F8FF80
07F8FF00
07F8FF00
07F87F00
03F07F00
03F07E00
03F07E00
ENDCHAR
STARTCHAR x
ENCODING 120
SWIDTH 398 0
DWIDTH 20 0
BBX 18 22 1 0
BITMAP
FC0FC0
7C0F80
7E1F80
3E1F00
1F3F00
1F3E00
0FFE00
0FFC00
07F800
03F800
03F000
03F000
03F800
07F800
07FC00
0FFC00
1FBE00
1F3F00
3E1F00
3E1F80
7C0F80
FC0FC0
ENDCHAR
STARTCHAR y
ENCODING 121
SWIDTH 395 0
DWIDTH 20 0
BBX 18 33 1 -11
BITMAP
FC0FC0
7C0FC0
7E0F80
7E0F80
7E1F80
3E1F80
3E1F00
3F1F00
1F3F00
1F3F00
1F3E00
1FBE00
0FFE00
0FFC00
0FFC00
07FC00
07FC00
07F800
07F800
03F800
03F000
03F000
03F000
03F000
03E000
07E000
07E000
07C000
0FC000
0FC000
0FC000
1F8000
1F8000
ENDCHAR
STARTCHAR z
ENCODING 122
SWIDTH 346 0
DWIDTH 17 0
BBX 16 22 1 0
BITMAP
7FFE
7FFE
7FFE
7FFE
7FFE
00FE
00FC
01F8
03F8
03F0
07E0
0FE0
0FC0
1F80
3F00
3F00
7E00
FFFF
FFFF
FFFF
FFFF
FFFF
ENDCHAR
STARTCHAR braceleft
ENCODING 123
SWIDTH 377 0
DWIDTH 19 0
BBX 16 45 2 -10
BITMAP
003F
00FF
01FF
03FF
03FF
07F0
07E0
07E0
07E0
07E0
07E0
07E0
07E0
07E0
07E0
07E0
07C0
0FC0
0FC0
3F80
FF80
FF00
FC00
FE00
FF00
3F80
0FC0
0FC0
07C0
07E0
07E0
07E0
07E0
07E0
07E0
07E0
07E0
07E0
07E0
07F0
03FF
03FF
01FF
00FF
003F
ENDCHAR
STARTCHAR bar
ENCODING 124
SWIDTH 275 0
DWIDTH 14 0
BBX 6 49 4 -12
BITMAP
FC
FC
FC
FC
FC
FC
FC
FC
FC
FC
FC
FC
FC
FC
FC
FC
FC
FC
FC
FC
FC
FC
FC
FC
FC
FC
FC
FC
FC
FC
FC
FC
FC
FC
FC
FC
FC
FC
FC
FC
FC
FC
FC
FC
FC
FC
FC
FC
FC
ENDCHAR
STARTCHAR braceright
ENCODING 125
SWIDTH 377 0
DWIDTH 19 0
BBX 16 45 1 -10
BITMAP
FC00
FF00
FF80
FFC0
FFE0
0FE0
07E0
07E0
07E0
07E0
07E0
07E0
07E0
03E0
03E0
03E0
03F0
03F0
03F8
01FC
00FF
007F
003F
007F
00FF
01FC
03F8
03F0
03F0
03E0
03E0
03E0
07E0
07E0
07E0
07E0
07E0
07E0
07E0
0FE0
FFE0
FFC0
FF80
FF00
FC00
ENDCHAR
STARTCHAR asciitilde
ENCODING 126
SWIDTH 572 0
DWIDTH 29 0
BBX 27 10 1 9
BITMAP
07C00000
1FF80020
3FFE00E0
FFFFC3E0
FFFFFFE0
FFFFFFE0
F83FFFE0
E00FFFC0
C003FF00
00007C00
ENDCHAR
STARTCHAR nonbreakingspace
ENCODING 160
SWIDTH 187 0
DWIDTH 9 0
BBX 1 1 0 0
BITMAP
00
ENDCHAR
STARTCHAR exclamdown
ENCODING 161
SWIDTH 247 0
DWIDTH 12 0
BBX 8 34 2 -11
BITMAP
3C
7E
7F
FF
FF
7F
7E
3C
00
00
7E
7E
7E
7E
7E
7E
7E
7E
7E
7E
7E
7E
7E
7E
7E
7E
7E
7E
7E
7E
7E
7E
7E
7E
ENDCHAR
STARTCHAR cent
ENCODING 162
SWIDTH 364 0
DWIDTH 18 0
BBX 16 29 1 -4
BITMAP
01E0
01E0
01E0
03FC
07FF
0FFF
1FFF
3FFF
7F83
7F01
7E00
FE00
FC00
FC00
FC00
FC00
FE00
FE00
7F01
7F83
3FFF
3FFF
1FFF
0FFF
07FE
01F0
01E0
01E0
01E0
ENDCHAR
STARTCHAR sterling
ENCODING 163
SWIDTH 448 0
DWIDTH 22 0
BBX 19 34 2 0
BITMAP
01FC00
07FF80
0FFFC0
1FFFC0
3FFFC0
3F83C0
3F00C0
3F0000
3F0000
3F0000
3F0000
3F0000
1F8000
1F8000
1F8000
FFFF00
FFFF00
FFFF00
FFFF00
FFFF00
0FC000
0FC000
0FC000
0FC000
0FC000
1FC000
1F8000
3F8000
7F0000
FFFFE0
FFFFE0
FFFFE0
7FFFE0
7FFFE0
ENDCHAR
STARTCHAR currency
ENCODING 164
SWIDTH 462 0
DWIDTH 23 0
BBX 21 34 0 0
BITMAP
000FE0
003FF8
007FF8
00FFF8
01FFF8
03FFF8
07FC18
07F000
0FF000
0FE000
0FC000
1FC000
1FC000
7FFF80
7FFF80
7FFF80
1F8000
1F8000
1F8000
7FFF00
FFFF00
FFFF00
1FC000
1FC000
0FC000
0FE000
0FF000
07F818
07FFF8
03FFF8
01FFF8
00FFF8
007FF8
001FE0
ENDCHAR
STARTCHAR yen
ENCODING 165
SWIDTH 519 0
DWIDTH 26 0
BBX 24 34 1 0
BITMAP
040020
1C0038
7E007E
FE007F
7E007F
7F00FE
3F00FC
3F81FC
1F81F8
1FC3F8
0FC3F0
0FE7F0
07E7E0
07FFC0
03FFC0
03FF80
01FF80
01FF00
3FFFF8
3FFFF8
3FFFF8
3FFFF8
3FFFF8
007E00
007E00
007E00
007E00
007E00
007E00
007E00
007E00
007E00
00FE00
00FE00
ENDCHAR
STARTCHAR brokenbar
ENCODING 166
SWIDTH 275 0
DWIDTH 14 0
BBX 6 41 4 -8
BITMAP
FC
FC
FC
FC
FC
FC
FC
FC
FC
FC
FC
FC
FC
FC
FC
FC
00
00
00
00
00
00
00
00
00
FC
FC
FC
FC
FC
FC
FC
FC
FC
FC
FC
FC
FC
FC
FC
FC
ENDCHAR
STARTCHAR section
ENCODING 167
SWIDTH 515 0
DWIDTH 26 0
BBX 24 35 1 0
BITMAP
000104
000184
011184
0BF1CA
0DF1DC
0FF19C
F073BC
2C637E
2CE6FC
E5C5F8
318BFC
578FF0
4FDFF0
5FFFF0
1FFFE0
1FFFC0
1FFFE0
1FFF80
0FFFC0
0FFFE0
07FFF0
03FFF8
01FFF8
01FFFC
00FFFC
00779E
00618E
006107
004100
004100
004080
004080
00C080
0FE7F0
031700
ENDCHAR
STARTCHAR dieresis
ENCODING 168
SWIDTH 413 0
DWIDTH 21 0
BBX 14 6 3 27
BITMAP
3838
7C7C
FC7C
FC7C
7C7C
3838
ENDCHAR
STARTCHAR copyright
ENCODING 169
SWIDTH 654 0
DWIDTH 33 0
BBX 29 36 4 0
BITMAP
001FC000
007FF000
01FFFC00
03E03E00
07800F00
0F000780
1E07E3C0
1C1FF1C0
383FF0E0
387FF0E0
70FC3070
70F80070
61F00030
61F00030
E1F00038
E1E00038
E1E00018
C1E00018
C1E00018
E1E00018
E1E00038
E1E00038
61F00030
61F00030
70F80070
70FC3070
387FF0E0
387FF0E0
1C3FF1C0
1E0FE3C0
0F000780
07800F00
03E03E00
01FFFC00
007FF000
001FC000
ENDCHAR
STARTCHAR ordfeminine
ENCODING 170
SWIDTH 276 0
DWIDTH 14 0
BBX 10 13 2 20
BITMAP
3F00
7F80
7FC0
43C0
3FC0
7FC0
FFC0
F1C0
E1C0
E3C0
FFC0
7FC0
3DC0
ENDCHAR
STARTCHAR guillemotleft
ENCODING 171
SWIDTH 360 0
DWIDTH 18 0
BBX 14 17 2 4
BITMAP
0410
0F1C
0E3C
1E78
3E78
3CF0
7DF0
79F0
FBE0
79E0
7DF0
3CF0
3E78
1E78
0E38
0F3C
0410
ENDCHAR
STARTCHAR logicalnot
ENCODING 172
SWIDTH 572 0
DWIDTH 29 0
BBX 24 17 3 6
BITMAP
FFFFFF
FFFFFF
FFFFFF
FFFFFF
FFFFFF
FFFFFF
00003F
00003F
00003F
00003F
00003F
00003F
00003F
00003F
00003F
00003F
00003F
ENDCHAR
STARTCHAR minus
ENCODING 173
SWIDTH 561 0
DWIDTH 28 0
BBX 23 6 3 14
BITMAP
FFFFFE
FFFFFE
FFFFFE
FFFFFE
FFFFFE
FFFFFE
ENDCHAR
STARTCHAR registered
ENCODING 174
SWIDTH 654 0
DWIDTH 33 0
BBX 29 36 4 0
BITMAP
001FC000
007FF000
01FFFC00
03E03E00
07800F00
0F000780
1E0003C0
1CFF01C0
38FFC0E0
38FFE0E0
70FFF070
70F0F870
60F07830
60F07830
E0F07838
E0F07838
E0F07818
C0F0F818
C0F1F018
E0F3E018
E0FFE038
E0FFE038
60FFE030
60FCE030
70F0F070
70F0F070
38F0F0E0
38F078E0
1CF079C0
1E0003C0
0F000780
07800F00
03E03E00
01FFFC00
007FF000
001FC000
ENDCHAR
STARTCHAR macron
ENCODING 175
SWIDTH 449 0
DWIDTH 22 0
BBX 15 4 4 24
BITMAP
FFFE
FFFE
FFFE
FFFE
ENDCHAR
STARTCHAR degree
ENCODING 176
SWIDTH 396 0
DWIDTH 20 0
BBX 16 16 2 21
BITMAP
07E0
1FF0
3FFC
7FFC
7C3E
F81E
F00F
F00F
F00F
F00F
F81E
7C3E
7FFC
3FFC
1FF0
07E0
ENDCHAR
STARTCHAR plusminus
ENCODING 177
SWIDTH 682 0
DWIDTH 34 0
BBX 33 35 1 0
BITMAP
8010080200
E0300C0700
FFFFFFFF80
6C781E7600
77CDE37A00
6FB7E9FA00
7A6BEE5600
5CD40BBA00
69EFF6DA00
5C9FFB5A00
7A3FFDAE00
FFC0A2FF00
E68FA15700
6C9AA37700
7F9B61BE00
4D96E3BE00
55DFC3BA00
5DCFC38200
5DC7C3A200
4DC7E3BA00
75C3E3B600
78E2975600
E2E2877700
FE728EBF80
537DFC8A00
5E9E397A00
6CEE659A00
5DA99EBE00
7E4E6B5E00
773B29FA00
7ECCA77E00
7D781EF600
FFFFFFFF00
E0380C0380
4010080200
ENDCHAR
STARTCHAR twosuperior
ENCODING 178
SWIDTH 301 0
DWIDTH 15 0
BBX 11 20 2 15
BITMAP
3F00
7FC0
7FC0
61E0
01E0
01E0
01E0
03C0
07C0
0780
0F80
1F00
1E00
3C00
7C00
7800
F000
FFE0
FFE0
FFE0
ENDCHAR
STARTCHAR threesuperior
ENCODING 179
SWIDTH 273 0
DWIDTH 14 0
BBX 11 21 1 14
BITMAP
7E00
7F00
7F80
4780
0380
03C0
0380
0780
1F00
1F80
1FC0
03C0
01E0
01E0
01E0
01E0
83E0
FFC0
FFC0
FF80
7E00
ENDCHAR
STARTCHAR acute
ENCODING 180
SWIDTH 271 0
DWIDTH 14 0
BBX 7 9 3 26
BITMAP
10
1C
3E
3C
7C
78
78
F0
20
ENDCHAR
STARTCHAR mu
ENCODING 181
SWIDTH 603 0
DWIDTH 30 0
BBX 23 30 4 -8
BITMAP
FC00FE
FC00FE
FC00FE
FC00FE
FC00FE
FC00FE
FC00FE
FC00FE
FC00FE
FC00FE
FC00FE
FC00FE
FE00FE
FE00FE
FF01FE
FF83FE
FFFFFE
FFFFFE
FFFFFE
FDFF7E
FCFF7E
FC7E7E
FC0000
FC0000
FC0000
FC0000
FC0000
FC0000
FC0000
FC0000
ENDCHAR
STARTCHAR paragraph
ENCODING 182
SWIDTH 541 0
DWIDTH 27 0
BBX 26 44 1 -9
BITMAP
03FFFFC0
0FFFFFC0
3FFFFFC0
7FFFFFC0
7FFFFFC0
FFFFFFC0
FFFC3E00
FFFC3E00
FFFC3E00
FFFC3E00
FFFC3E00
FFFC3E00
FFFC3E00
FFFC3E00
7FFC3E00
7FFC3E00
3FFC3E00
0FFC3E00
03FC3E00
007C3E00
007C3E00
007C3E00
007C3E00
007C3E00
007C3E00
007C3E00
007C3E00
007C3E00
007C3E00
007C3E00
007C3E00
007C3E00
007C3E00
007C3E00
007C3E00
007C3E00
007C3E00
007C3E00
007C3E00
007C3E00
007C3E00
007C3E00
007C3E00
007C3E00
ENDCHAR
STARTCHAR periodcentered
ENCODING 183
SWIDTH 233 0
DWIDTH 12 0
BBX 8 8 2 13
BITMAP
3C
7E
FE
FF
FF
FE
7E
3C
ENDCHAR
STARTCHAR cedilla
ENCODING 184
SWIDTH 405 0
DWIDTH 20 0
BBX 8 11 6 -9
BITMAP
18
1E
1C
1C
1E
0F
0F
BF
FF
FE
F0
ENDCHAR
STARTCHAR onesuperior
ENCODING 185
SWIDTH 241 0
DWIDTH 12 0
BBX 7 20 2 15
BITMAP
0E
1E
3E
FE
FE
1E
1E
1E
1E
1E
1E
1E
1E
1E
1E
1E
1E
1E
1E
1E
ENDCHAR
STARTCHAR ordmasculine
ENCODING 186
SWIDTH 286 0
DWIDTH 14 0
BBX 12 13 1 20
BITMAP
1F80
3FC0
7FE0
78E0
F0F0
F0F0
F0F0
F0F0
F0F0
78E0
7FE0
3FC0
1F80
ENDCHAR
STARTCHAR guillemotright
ENCODING 187
SWIDTH 360 0
DWIDTH 18 0
BBX 14 17 2 4
BITMAP
2080
F3C0
71C0
79E0
79F0
3CF0
3EF8
1E78
1F7C
3E78
3EF8
3CF0
79F0
79E0
F1C0
E3C0
2080
ENDCHAR
STARTCHAR onequarter
ENCODING 188
SWIDTH 744 0
DWIDTH 37 0
BBX 33 36 2 -1
BITMAP
0E00007C00
1E00007800
3E0000F000
FE0001E000
FE0001E000
1E0003C000
1E00078000
1E00078000
1E000F0000
1E001E0000
1E001E0000
1E003C0000
1E00780000
1E00780000
1E00F00000
1E01E01E00
1E01E03E00
1E03C03E00
1E07807E00
1E0780FE00
000F00FE00
001E01FE00
001E03DE00
003C03DE00
0078079E00
0078079E00
00F00F1E00
01E00FFF80
01E00FFF80
03C00FFF80
0780001E00
0780001E00
0F00001E00
1E00001E00
1E00001E00
3C00000000
ENDCHAR
STARTCHAR onehalf
ENCODING 189
SWIDTH 773 0
DWIDTH 39 0
BBX 35 36 2 -1
BITMAP
0E00007C00
1E00007800
3E0000F000
FE0001E000
FE0001E000
1E0003C000
1E00078000
1E00078000
1E000F0000
1E001E0000
1E001E0000
1E003C0000
1E00780000
1E00780000
1E00F00000
1E01E03E00
1E01E0FF80
1E03C0FFC0
1E0780C3C0
1E078103C0
000F0003C0
001E0003C0
001E0003C0
003C000780
0078000F80
0078000F00
00F0001E00
01E0003E00
01E0007C00
03C0007800
078000F800
078001F000
0F0001FFE0
1E0001FFE0
1E0001FFE0
3C00000000
ENDCHAR
STARTCHAR threequarters
ENCODING 190
SWIDTH 744 0
DWIDTH 37 0
BBX 35 36 1 -1
BITMAP
7E00001F00
7F00001E00
7F80003C00
4780003C00
0380007800
03C000F000
038000F000
078001E000
1F0003C000
1F8003C000
1FC0078000
03C00F0000
01E00F0000
01E01E0000
01E03C0000
01E03C0780
83E0780F80
FFC0F00F80
FFC0F01F80
FF81E01F80
7E03C03F80
0003C07F80
0007807F80
000F00F780
000F01E780
001E01E780
003C03C780
003C03FFE0
007803FFE0
00F003FFE0
00F0000780
01E0000780
03C0000780
03C0000780
0780000780
0F00000000
ENDCHAR
STARTCHAR questiondown
ENCODING 191
SWIDTH 382 0
DWIDTH 19 0
BBX 16 35 2 -12
BITMAP
00F0
01F8
03FC
03FC
03FC
03FC
01F8
00F0
0000
0000
0000
01F8
01F8
01F8
01F8
01F8
01F8
03F0
07F0
0FE0
1FE0
1FC0
3F80
7F00
7E00
FE00
FC00
FC00
FC01
FE0F
7FFF
7FFF
3FFF
1FFF
07F8
ENDCHAR
STARTCHAR Agrave
ENCODING 192
SWIDTH 535 0
DWIDTH 27 0
BBX 25 46 1 0
BITMAP
00180000
00380000
00F80000
007C0000
003C0000
001E0000
001E0000
000E0000
00080000
00000000
00000000
00000000
00000000
00FF0000
00FF0000
00FF8000
00FF8000
01FF8000
01FF8000
01FFC000
01FFC000
03FFC000
03FFC000
03FFE000
07F7E000
07E7E000
07E7E000
07E7F000
0FC3F000
0FC3F000
0FC3F800
0FC3F800
1F81F800
1F81F800
1FFFFF00
1FFFFF00
3FFFFF00
3FFFFF00
3FFFFF00
7E00FE00
7E007E00
7E007F00
7E007F00
FC007F00
FC003F00
FC003F80
ENDCHAR
STARTCHAR Aacute
ENCODING 193
SWIDTH 535 0
DWIDTH 27 0
BBX 25 46 1 0
BITMAP
000C0000
000E0000
000F8000
001F0000
001E0000
001E0000
003C0000
00380000
00080000
00000000
00000000
00000000
00000000
00FF0000
00FF0000
00FF8000
00FF8000
01FF8000
01FF8000
01FFC000
01FFC000
03FFC000
03FFC000
03FFE000
07F7E000
07E7E000
07E7E000
07E7F000
0FC3F000
0FC3F000
0FC3F800
0FC3F800
1F81F800
1F81F800
1FFFFF00
1FFFFF00
3FFFFF00
3FFFFF00
3FFFFF00
7E00FE00
7E007E00
7E007F00
7E007F00
FC007F00
FC003F00
FC003F80
ENDCHAR
STARTCHAR Acircumflex
ENCODING 194
SWIDTH 530 0
DWIDTH 27 0
BBX 25 45 1 0
BITMAP
007E0000
007F0000
00FF0000
00F78000
01E3C000
03C1C000
0181E000
01008000
00000000
00000000
00000000
00000000
00FF0000
00FF0000
00FF8000
00FF8000
01FF8000
01FF8000
01FFC000
01FFC000
03FFC000
03FFC000
03FFE000
07E7E000
07E7E000
07E7E000
07E7F000
0FC3F000
0FC3F000
0FC3F800
0FC3F800
1F81F800
1F81F800
1FFFFF00
1FFFFF00
3FFFFF00
3FFFFF00
3FFFFF00
7E00FE00
7E007E00
7E007F00
7E007F00
FC007F00
FC003F00
FC003F80
ENDCHAR
STARTCHAR Atilde
ENCODING 195
SWIDTH 532 0
DWIDTH 27 0
BBX 25 44 1 0
BITMAP
00F04000
01FCC000
03FFE000
07FFE000
03BFC000
01078000
00000000
00000000
00000000
00000000
00000000
00FF0000
00FF0000
00FF8000
00FF8000
01FF8000
01FF8000
01FFC000
01FFC000
03FFC000
03FFC000
03FFE000
07F7E000
07E7E000
07E7E000
07E7F000
0FC3F000
0FC3F000
0FC3F800
0FC3F800
1F81F800
1F81F800
1FFFFF00
1FFFFF00
3FFFFF00
3FFFFF00
3FFFFF00
7E00FE00
7E007E00
7E007F00
7E007F00
FC007F00
FC003F00
FC003F80
ENDCHAR
STARTCHAR Adieresis
ENCODING 196
SWIDTH 533 0
DWIDTH 27 0
BBX 25 44 1 0
BITMAP
01C1C000
03E3E000
07E3E000
07E3E000
03E3E000
01C1C000
00000000
00000000
00000000
00000000
00000000
00FF0000
00FF0000
00FF8000
00FF8000
01FF8000
01FF8000
01FFC000
01FFC000
03FFC000
03FFC000
03FFE000
07F7E000
07E7E000
07E7E000
07E7F000
0FC3F000
0FC3F000
0FC3F800
0FC3F800
1F81F800
1F81F800
1FFFFF00
1FFFFF00
3FFFFF00
3FFFFF00
3FFFFF00
7E00FE00
7E007E00
7E007F00
7E007F00
FC007F00
FC003F00
FC003F80
ENDCHAR
STARTCHAR Aring
ENCODING 197
SWIDTH 537 0
DWIDTH 27 0
BBX 25 46 1 0
BITMAP
003E0000
007F0000
00FF8000
00E38000
01E3C000
01E3C000
01E38000
00FF8000
007F0000
003E0000
00000000
00000000
00000000
00FF0000
00FF0000
00FF8000
00FF8000
01FF8000
01FF8000
01FFC000
01FFC000
03FFC000
03FFC000
03FFE000
07F7E000
07E7E000
07E7E000
07E7F000
0FC3F000
0FC3F000
0FC3F800
0FC3F800
1F81F800
1F81F800
1FFFFF00
1FFFFF00
3FFFFF00
3FFFFF00
3FFFFF00
7E00FE00
7E007E00
7E007F00
7E007F00
FC007F00
FC003F00
FC003F80
ENDCHAR
STARTCHAR AE
ENCODING 198
SWIDTH 754 0
DWIDTH 38 0
BBX 38 33 -1 0
BITMAP
00007FFFF8
0000FFFFF8
0000FFFFF8
0001FFFFF8
0001FFFFF8
0003FFFFF8
0003F7E000
0007F7E000
0007E7E000
000FE7E000
000FC7E000
001FC7E000
001F87E000
003F8FFFE0
003F7FFFE0
007EFFFFE0
007FFFFFE0
00FFFFFFE0
00FFFFE000
00FFC7E000
01FF07E000
01FE07E000
03F807E000
03F007E000
07F007E000
07E007E000
0FC007E000
1FC007E000
1F8007FFFC
3F8007FFFC
3F000FFFFC
7F000FFFFC
FF000FFFFC
ENDCHAR
STARTCHAR Ccedilla
ENCODING 199
SWIDTH 417 0
DWIDTH 21 0
BBX 19 44 1 -10
BITMAP
003F00
01FFE0
03FFE0
07FFE0
0FFFE0
1FFFE0
1FE060
3FC000
3F8000
7F0000
7F0000
7E0000
FE0000
FE0000
FE0000
FE0000
FE0000
FE0000
FE0000
FE0000
FE0000
FE0000
7E0000
7E0000
7F0000
7F0000
3F8000
3FC060
3FFFE0
1FFFE0
0FFFE0
07FFE0
03FFE0
00FF00
007800
007800
007800
003C00
003C00
003E00
03FC00
03FC00
03F800
03E000
ENDCHAR
STARTCHAR Egrave
ENCODING 200
SWIDTH 442 0
DWIDTH 22 0
BBX 17 46 2 0
BITMAP
00C000
01C000
07C000
03E000
01E000
01E000
00F000
007000
004000
000000
000000
000000
000000
FFFF80
7FFF80
7FFF80
7FFF80
7FFF80
7E0000
7E0000
7E0000
7E0000
7E0000
7E0000
7E0000
7E0000
7FFE00
7FFE00
7FFE00
7FFE00
7FFE00
7E0000
7E0000
7E0000
7E0000
7E0000
7E0000
7E0000
7E0000
7E0000
7E0000
7FFF80
7FFF80
7FFF80
7FFF80
FFFF80
ENDCHAR
STARTCHAR Eacute
ENCODING 201
SWIDTH 405 0
DWIDTH 20 0
BBX 17 46 2 0
BITMAP
004000
007000
00F800
00F800
00F000
01E000
01E000
03C000
008000
000000
000000
000000
000000
FFFF80
7FFF80
7FFF80
7FFF80
7FFF80
7E0000
7E0000
7E0000
7E0000
7E0000
7E0000
7E0000
7E0000
7FFE00
7FFE00
7FFE00
7FFE00
7FFE00
7E0000
7E0000
7E0000
7E0000
7E0000
7E0000
7E0000
7E0000
7E0000
7E0000
7FFF80
7FFF80
7FFF80
7FFF80
FFFF80
ENDCHAR
STARTCHAR Ecircumflex
ENCODING 202
SWIDTH 442 0
DWIDTH 22 0
BBX 17 45 2 0
BITMAP
01F000
03F800
07FC00
07BC00
0F1E00
1E0F00
0C0600
080400
000000
000000
000000
000000
FFFF80
7FFF80
7FFF80
7FFF80
7FFF80
7E0000
7E0000
7E0000
7E0000
7E0000
7E0000
7E0000
7E0000
7FFE00
7FFE00
7FFE00
7FFE00
7FFE00
7E0000
7E0000
7E0000
7E0000
7E0000
7E0000
7E0000
7E0000
7E0000
7E0000
7FFF80
7FFF80
7FFF80
7FFF80
FFFF80
ENDCHAR
STARTCHAR Edieresis
ENCODING 203
SWIDTH 442 0
DWIDTH 22 0
BBX 17 44 2 0
BITMAP
0E0E00
1F1F00
1F1F80
1F1F80
1F1F00
0E0E00
000000
000000
000000
000000
000000
FFFF80
7FFF80
7FFF80
7FFF80
7FFF80
7E0000
7E0000
7E0000
7E0000
7E0000
7E0000
7E0000
7E0000
7FFE00
7FFE00
7FFE00
7FFE00
7FFE00
7E0000
7E0000
7E0000
7E0000
7E0000
7E0000
7E0000
7E0000
7E0000
7E0000
7FFF80
7FFF80
7FFF80
7FFF80
FFFF80
ENDCHAR
STARTCHAR Igrave
ENCODING 204
SWIDTH 232 0
DWIDTH 12 0
BBX 7 46 2 0
BITMAP
10
70
F8
F8
78
3C
3C
1E
08
00
00
00
00
FE
7E
7E
7E
7E
7E
7E
7E
7E
7E
7E
7E
7E
7E
7E
7E
7E
7E
7E
7E
7E
7E
7E
7E
7E
7E
7E
7E
7E
7E
7E
7E
FE
ENDCHAR
STARTCHAR Iacute
ENCODING 205
SWIDTH 232 0
DWIDTH 12 0
BBX 9 46 2 0
BITMAP
0400
0F00
0F80
0F00
1E00
1E00
3C00
3800
0800
0000
0000
0000
0000
FE00
7E00
7E00
7E00
7E00
7E00
7E00
7E00
7E00
7E00
7E00
7E00
7E00
7E00
7E00
7E00
7E00
7E00
7E00
7E00
7E00
7E00
7E00
7E00
7E00
7E00
7E00
7E00
7E00
7E00
7E00
7E00
FE00
ENDCHAR
STARTCHAR Icircumflex
ENCODING 206
SWIDTH 232 0
DWIDTH 12 0
BBX 13 45 -1 0
BITMAP
0FC0
1FC0
1FE0
3DF0
78F0
7878
F038
2020
0000
0000
0000
0000
1FC0
0FC0
0FC0
0FC0
0FC0
0FC0
0FC0
0FC0
0FC0
0FC0
0FC0
0FC0
0FC0
0FC0
0FC0
0FC0
0FC0
0FC0
0FC0
0FC0
0FC0
0FC0
0FC0
0FC0
0FC0
0FC0
0FC0
0FC0
0FC0
0FC0
0FC0
0FC0
1FC0
ENDCHAR
STARTCHAR Idieresis
ENCODING 207
SWIDTH 232 0
DWIDTH 12 0
BBX 14 44 -1 0
BITMAP
7070
F8F8
F8FC
FCFC
F8F8
7078
0000
0000
0000
0000
0000
1FC0
0FC0
0FC0
0FC0
0FC0
0FC0
0FC0
0FC0
0FC0
0FC0
0FC0
0FC0
0FC0
0FC0
0FC0
0FC0
0FC0
0FC0
0FC0
0FC0
0FC0
0FC0
0FC0
0FC0
0FC0
0FC0
0FC0
0FC0
0FC0
0FC0
0FC0
0FC0
1FC0
ENDCHAR
STARTCHAR Eth
ENCODING 208
SWIDTH 538 0
DWIDTH 27 0
BBX 26 33 0 0
BITMAP
1FFF0000
1FFFE000
1FFFF800
1FFFFC00
1FFFFC00
1F81FE00
1F807F00
1F803F00
1F803F00
1F801F80
1F801F80
1F801F80
1F801F80
1F801F80
FFFE1F80
FFFE1F80
FFFE1FC0
1F801F80
1F801F80
1F801F80
1F801F80
1F801F80
1F801F80
1F801F80
1F803F80
1F803F80
1F807F00
1F81FF00
1FFFFE00
1FFFFE00
1FFFFC00
1FFFF000
1FFFC000
ENDCHAR
STARTCHAR Ntilde
ENCODING 209
SWIDTH 524 0
DWIDTH 26 0
BBX 23 44 1 0
BITMAP
00E080
03F8C0
07FFC0
07FFE0
03BF80
020F00
000000
000000
000000
000000
000000
FE00FE
7F00FE
3F00FC
3F80FC
3FC0FC
3FC0FC
3FE0FC
3FE0FC
3FF0FC
3FF8FC
3FF8FC
3FFCFC
3FFEFC
3F7EFC
3F7FFC
3F3FFC
3F3FFC
3F1FFC
3F0FFC
3F0FFC
3F07FC
3F03FC
3F03FC
3F01FC
3F01FC
3F00FC
3F00FC
3F00FC
3F00FC
7F00FC
7F00FC
7F00FE
7F00FE
ENDCHAR
STARTCHAR Ograve
ENCODING 210
SWIDTH 546 0
DWIDTH 27 0
BBX 23 47 2 -1
BITMAP
002000
00F000
01F000
00F000
007800
007800
003C00
001C00
001000
000000
000000
000000
00FE00
07FF80
0FFFE0
1FFFF0
3FFFF8
7F87F8
7F01FC
FE01FC
FE00FC
FE00FE
FC00FE
FC00FE
FC00FE
FC007E
FC007E
FC007E
FC007E
FC007E
FC007E
FC007E
FC007E
FC007E
FC007E
FC00FE
FC00FE
FC00FE
FE00FC
7E00FC
7F01FC
7F83F8
3FFFF0
1FFFF0
0FFFE0
07FF80
00FE00
ENDCHAR
STARTCHAR Oacute
ENCODING 211
SWIDTH 546 0
DWIDTH 27 0
BBX 23 47 2 -1
BITMAP
000800
000E00
001F00
001E00
003E00
003C00
003800
007800
001000
000000
000000
000000
00FE00
07FF80
0FFFE0
1FFFF0
3FFFF8
7F87F8
7F01FC
FE01FC
FE00FC
FE00FE
FC00FE
FC00FE
FC00FE
FC007E
FC007E
FC007E
FC007E
FC007E
FC007E
FC007E
FC007E
FC007E
FC007E
FC00FE
FC00FE
FC00FE
FE00FC
7E00FC
7F01FC
7F83F8
3FFFF0
1FFFF0
0FFFE0
07FF80
00FE00
ENDCHAR
STARTCHAR Ocircumflex
ENCODING 212
SWIDTH 546 0
DWIDTH 27 0
BBX 23 46 2 -1
BITMAP
007C00
00FE00
01FF00
01EF00
03C780
0383C0
070180
020100
000000
000000
000000
00FE00
07FF80
0FFFE0
1FFFF0
3FFFF8
7F87F8
7F01FC
FE01FC
FE00FC
FE00FE
FC00FE
FC00FE
FC00FE
FC007E
FC007E
FC007E
FC007E
FC007E
FC007E
FC007E
FC007E
FC007E
FC007E
FC00FE
FC00FE
FC00FE
FE00FC
7E00FC
7F01FC
7F83F8
3FFFF0
1FFFF0
0FFFE0
07FF80
00FE00
ENDCHAR
STARTCHAR Otilde
ENCODING 213
SWIDTH 546 0
DWIDTH 27 0
BBX 23 45 2 -1
BITMAP
01E080
03F8C0
07FFC0
07FFE0
07BF80
020F00
000000
000000
000000
000000
00FE00
07FF80
0FFFE0
1FFFF0
3FFFF8
7F87F8
7F01FC
FE01FC
FE00FC
FE00FE
FC00FE
FC00FE
FC00FE
FC007E
FC007E
FC007E
FC007E
FC007E
FC007E
FC007E
FC007E
FC007E
FC007E
FC00FE
FC00FE
FC00FE
FE00FC
7E00FC
7F01FC
7F83F8
3FFFF0
1FFFF0
0FFFE0
07FF80
00FE00
ENDCHAR
STARTCHAR Odieresis
ENCODING 214
SWIDTH 546 0
DWIDTH 27 0
BBX 23 45 2 -1
BITMAP
038380
07C7C0
07C7E0
07C7E0
07C7C0
038380
000000
000000
000000
000000
00FE00
07FF80
0FFFE0
1FFFF0
3FFFF8
7F87F8
7F01FC
FE01FC
FE00FC
FE00FE
FC00FE
FC00FE
FC00FE
FC007E
FC007E
FC007E
FC007E
FC007E
FC007E
FC007E
FC007E
FC007E
FC007E
FC00FE
FC00FE
FC00FE
FE00FC
7E00FC
7F01FC
7F83F8
3FFFF0
1FFFF0
0FFFE0
07FF80
00FE00
ENDCHAR
STARTCHAR multiply
ENCODING 215
SWIDTH 561 0
DWIDTH 28 0
BBX 22 23 3 5
BITMAP
100020
380070
7C00F8
FE01FC
FF03FC
7F87F8
3FCFF0
1FFFE0
0FFFC0
07FF80
03FF00
01FE00
03FF00
07FF80
0FFFC0
1FFFE0
3FCFF0
7F87F8
FF03FC
FE01FC
7C00F8
380070
100020
ENDCHAR
STARTCHAR Oslash
ENCODING 216
SWIDTH 546 0
DWIDTH 27 0
BBX 29 36 -1 -1
BITMAP
00000080
001FC1C0
00FFF9E0
01FFFFF8
03FFFFF0
07FFFFE0
07F07FC0
0FE03F80
0FC03FC0
1FC03FC0
1F807FC0
1F80FFC0
1F80FFC0
1F81FFE0
3F83F7E0
3F87F7E0
3F87E7E0
3F8FC7E0
3F9F87E0
3FBF87E0
3FBF07E0
3FFE07E0
3FFE0FE0
1FFC0FE0
1FF80FC0
1FF00FC0
1FF00FC0
0FE01FC0
0FE03F80
1FF07F80
3FFFFF00
7FFFFE00
FFFFFC00
3EFFF800
1C1FC000
04000000
ENDCHAR
STARTCHAR Ugrave
ENCODING 217
SWIDTH 557 0
DWIDTH 28 0
BBX 23 47 2 -1
BITMAP
000400
001C00
003E00
001E00
001F00
000F00
000700
000780
000200
000000
000000
000000
000000
FC00FE
FC007E
FC007E
FC007E
FC007E
FC007E
FC007E
FC007E
FC007E
FC007E
FC007E
FC007E
FC007E
FC007E
FC007E
FC007E
FC007E
FC007E
FC007E
FC007E
FC007E
FC007E
FC007E
FC007E
FE00FE
FE00FE
7E00FC
7F01FC
3F83F8
3FFFF8
1FFFF0
0FFFE0
07FF80
00FE00
ENDCHAR
STARTCHAR Uacute
ENCODING 218
SWIDTH 557 0
DWIDTH 28 0
BBX 23 47 2 -1
BITMAP
000100
0001C0
0003E0
0003C0
0007C0
000780
000700
000F00
000200
000000
000000
000000
000000
FC00FE
FC007E
FC007E
FC007E
FC007E
FC007E
FC007E
FC007E
FC007E
FC007E
FC007E
FC007E
FC007E
FC007E
FC007E
FC007E
FC007E
FC007E
FC007E
FC007E
FC007E
FC007E
FC007E
FC007E
FE00FE
FE00FE
7E00FC
7F01FC
3F83F8
3FFFF8
1FFFF0
0FFFE0
07FF80
00FE00
ENDCHAR
STARTCHAR Ucircumflex
ENCODING 219
SWIDTH 557 0
DWIDTH 28 0
BBX 23 46 2 -1
BITMAP
000FC0
000FE0
001FE0
003EF0
003C78
007878
00303C
002010
000000
000000
000000
000000
FC00FE
FC007E
FC007E
FC007E
FC007E
FC007E
FC007E
FC007E
FC007E
FC007E
FC007E
FC007E
FC007E
FC007E
FC007E
FC007E
FC007E
FC007E
FC007E
FC007E
FC007E
FC007E
FC007E
FC007E
FE00FE
FE00FE
7E00FC
7F01FC
3F83F8
3FFFF8
1FFFF0
0FFFE0
07FF80
00FE00
ENDCHAR
STARTCHAR Udieresis
ENCODING 220
SWIDTH 557 0
DWIDTH 28 0
BBX 23 45 2 -1
BITMAP
038380
07C7C0
07C7E0
07C7E0
07C7C0
038380
000000
000000
000000
000000
000000
FC00FE
FC007E
FC007E
FC007E
FC007E
FC007E
FC007E
FC007E
FC007E
FC007E
FC007E
FC007E
FC007E
FC007E
FC007E
FC007E
FC007E
FC007E
FC007E
FC007E
FC007E
FC007E
FC007E
FC007E
FE00FE
FE00FE
7E00FC
7F01FC
3F83F8
3FFFF8
1FFFF0
0FFFE0
07FF80
00FE00
ENDCHAR
STARTCHAR Yacute
ENCODING 221
SWIDTH 480 0
DWIDTH 24 0
BBX 22 45 1 0
BITMAP
000800
001E00
001F00
001E00
003E00
003C00
007800
007800
001000
000000
000000
000000
FC00FC
FC00FC
7C00F8
7E01F8
3E01F0
3F03F0
3F03F0
1F87E0
1F87E0
0F87C0
0FCFC0
07CF80
07FF80
07FF80
03FF00
03FF00
01FE00
01FE00
00FC00
00FC00
00FC00
00FC00
00FC00
00FC00
00FC00
00FC00
00FC00
00FC00
00FC00
00FC00
00FC00
00FC00
00FC00
ENDCHAR
STARTCHAR Thorn
ENCODING 222
SWIDTH 473 0
DWIDTH 24 0
BBX 20 40 3 0
BITMAP
FC0000
FC0000
FC0000
FC0000
FC0000
FC0000
FC0000
FFE000
FFFC00
FFFE00
FFFF80
FFFFC0
FC3FC0
FC0FE0
FC0FE0
FC07E0
FC07F0
FC07F0
FC07F0
FC07F0
FC07E0
FC07E0
FC0FE0
FC1FC0
FC3FC0
FC7F80
FDFF00
FFFE00
FFFC00
FFF800
FFE000
FFC000
FF0000
FC0000
FC0000
FC0000
FC0000
FC0000
FC0000
FC0000
ENDCHAR
STARTCHAR germandbls
ENCODING 223
SWIDTH 463 0
DWIDTH 23 0
BBX 20 35 2 -1
BITMAP
01F800
07FE00
0FFF00
1FFF80
3FFFC0
3F8FC0
7F0FC0
7E07C0
7E0FC0
FC0FC0
FC0FC0
FC1FC0
FC1F80
FC3F00
FCFF00
FCFFC0
FCFFE0
FC7FE0
FC7FF0
FC03F0
FC03F0
FC03F0
FC03F0
FC03F0
FC07E0
FC07E0
FC0FE0
FC1FC0
FC3FC0
FC7F80
FDFF00
FDFE00
FCFC00
FC7800
002000
ENDCHAR
STARTCHAR agrave
ENCODING 224
SWIDTH 387 0
DWIDTH 19 0
BBX 17 35 1 0
BITMAP
008000
038000
07C000
03C000
03E000
01E000
00E000
00F000
004000
000000
000000
000000
000000
0FF000
3FFC00
3FFE00
3FFE00
3FFF00
003F00
001F00
001F00
07FF00
1FFF00
3FFF00
7FFF00
FFFF00
FC1F00
F81F00
F81F00
FC3F00
FFFF00
7FFF00
7FFF00
3FDF00
0F9F80
ENDCHAR
STARTCHAR aacute
ENCODING 225
SWIDTH 387 0
DWIDTH 19 0
BBX 17 35 1 0
BITMAP
004000
007000
00F800
00F800
00F000
01E000
01E000
01C000
008000
000000
000000
000000
000000
0FF000
3FFC00
3FFE00
3FFE00
3FFF00
003F00
001F00
001F00
07FF00
1FFF00
3FFF00
7FFF00
FFFF00
FC1F00
F81F00
F81F00
FC3F00
FFFF00
7FFF00
7FFF00
3FDF00
0F9F80
ENDCHAR
STARTCHAR acircumflex
ENCODING 226
SWIDTH 389 0
DWIDTH 19 0
BBX 17 33 1 0
BITMAP
07E000
07F000
0FF000
0F7800
1E3C00
3C1C00
180E00
100800
000000
000000
000000
0FF000
3FFC00
3FFE00
3FFE00
3FFF00
203F00
001F00
001F00
07FF00
1FFF00
3FFF00
7FFF00
FFFF00
FC1F00
F81F00
F81F00
FC3F00
FFFF00
7FFF00
7FFF00
3FDF00
0F9F80
ENDCHAR
STARTCHAR atilde
ENCODING 227
SWIDTH 389 0
DWIDTH 19 0
BBX 17 33 1 0
BITMAP
0F0400
1FC600
3FFE00
3FFF00
3DFC00
107800
000000
000000
000000
000000
000000
0FF000
3FFC00
3FFE00
3FFE00
3FFF00
003F00
001F00
001F00
07FF00
1FFF00
3FFF00
7FFF00
FFFF00
FC1F00
F81F00
F81F00
FC3F00
FFFF00
7FFF00
7FFF00
3FDF00
0F9F80
ENDCHAR
STARTCHAR adieresis
ENCODING 228
SWIDTH 389 0
DWIDTH 19 0
BBX 17 33 1 0
BITMAP
1C1C00
3E3E00
7E3E00
7E3E00
3E3E00
1C1C00
000000
000000
000000
000000
000000
0FF000
3FFC00
3FFE00
3FFE00
3FFF00
303F00
001F00
001F00
07FF00
1FFF00
3FFF00
7FFF00
FFFF00
FC1F00
F81F00
F81F00
FC3F00
FFFF00
7FFF00
7FFF00
3FDF00
0F9F80
ENDCHAR
STARTCHAR aring
ENCODING 229
SWIDTH 390 0
DWIDTH 20 0
BBX 17 35 1 0
BITMAP
03E000
07F000
0FF800
1E3800
1E3C00
1E3C00
1E3800
0FF800
07F000
03E000
000000
000000
000000
0FF000
3FFC00
3FFE00
3FFE00
3FFF00
303F00
001F00
001F00
07FF00
1FFF00
3FFF00
7FFF00
FFFF00
FC1F00
F81F00
F81F00
FC3F00
FFFF00
7FFF00
7FFF00
3FDF00
0F9F80
ENDCHAR
STARTCHAR ae
ENCODING 230
SWIDTH 636 0
DWIDTH 32 0
BBX 29 22 1 0
BITMAP
0FF03F00
3FFCFFC0
3FFFFFE0
3FFFFFE0
3FFFFFF0
301FC1F0
000FC1F8
000F80F8
07FFFFF8
1FFFFFF8
3FFFFFF8
7FFFFFF8
FFFFFFF8
FE1F8000
FC0FC000
FC0FC000
FE3FF020
FFFFFFE0
7FFFFFE0
7FFDFFE0
3FF0FFE0
0FC03FC0
ENDCHAR
STARTCHAR ccedilla
ENCODING 231
SWIDTH 355 0
DWIDTH 18 0
BBX 15 32 2 -10
BITMAP
03F0
0FFC
1FFC
3FFC
7FFC
7F0C
FE04
FC00
FC00
F800
F800
F800
F800
FC00
FC00
FE02
FF0E
7FFE
3FFE
3FFE
1FFE
07F8
01C0
01C0
01C0
03E0
00E0
01F0
0FE0
0FE0
0FC0
0F00
ENDCHAR
STARTCHAR egrave
ENCODING 232
SWIDTH 397 0
DWIDTH 20 0
BBX 17 35 1 0
BITMAP
010000
038000
0F8000
07C000
03C000
03C000
01E000
00E000
008000
000000
000000
000000
000000
03F000
0FFC00
1FFE00
3FFF00
3FFF00
7E1F80
7C0F80
7C0F80
FFFF80
FFFF80
FFFF80
FFFF80
FFFF80
7C0000
7C0000
7E0000
7F0300
3FFF00
1FFF00
0FFF00
07FF00
01FC00
ENDCHAR
STARTCHAR eacute
ENCODING 233
SWIDTH 400 0
DWIDTH 20 0
BBX 17 35 1 0
BITMAP
004000
007000
00F800
00F000
01F000
01E000
01C000
03C000
008000
000000
000000
000000
000000
03F000
0FFC00
1FFE00
3FFF00
3FFF00
7E1F80
7C0F80
7C0F80
FFFF80
FFFF80
FFFF80
FFFF80
FFFF80
7C0000
7C0000
7E0000
7F0300
3FFF00
1FFF00
0FFF00
07FF00
01FC00
ENDCHAR
STARTCHAR ecircumflex
ENCODING 234
SWIDTH 396 0
DWIDTH 20 0
BBX 17 33 1 0
BITMAP
03F000
07F000
07F800
0F7C00
1F3C00
1E1E00
1C0E00
080800
000000
000000
000000
03F000
0FFC00
1FFE00
3FFF00
3FFF00
7E1F80
7C0F80
7C0F80
FFFF80
FFFF80
FFFF80
FFFF80
FFFF80
7C0000
7C0000
7E0000
7F0300
3FFF00
1FFF00
0FFF00
07FF00
01FC00
ENDCHAR
STARTCHAR edieresis
ENCODING 235
SWIDTH 397 0
DWIDTH 20 0
BBX 17 33 1 0
BITMAP
1C1E00
3E3E00
3F3F00
3F3F00
3E3E00
1C1E00
000000
000000
000000
000000
000000
03F000
0FFC00
1FFE00
3FFF00
3FFF00
7E1F80
7C0F80
7C0F80
FFFF80
FFFF80
FFFF80
FFFF80
FFFF80
7C0000
7C0000
7E0000
7F0300
3FFF00
1FFF00
0FFF00
07FF00
01FC00
ENDCHAR
STARTCHAR igrave
ENCODING 236
SWIDTH 188 0
DWIDTH 9 0
BBX 7 35 0 0
BITMAP
10
78
F8
78
3C
3C
1E
0E
08
00
00
00
00
3E
3E
3E
3E
3E
3E
3E
3E
3E
3E
3E
3E
3E
3E
3E
3E
3E
3E
3E
3E
3E
3E
ENDCHAR
STARTCHAR iacute
ENCODING 237
SWIDTH 189 0
DWIDTH 9 0
BBX 7 35 2 0
BITMAP
10
3C
3E
3C
78
78
F0
E0
20
00
00
00
00
F8
F8
F8
F8
F8
F8
F8
F8
F8
F8
F8
F8
F8
F8
F8
F8
F8
F8
F8
F8
F8
F8
ENDCHAR
STARTCHAR icircumflex
ENCODING 238
SWIDTH 190 0
DWIDTH 10 0
BBX 13 33 -2 0
BITMAP
0F80
1FC0
3FE0
3DE0
78F0
F078
6030
4020
0000
0000
0000
1FC0
0F80
0F80
0F80
0F80
0F80
0F80
0F80
0F80
0F80
0F80
0F80
0F80
0F80
0F80
0F80
0F80
0F80
0F80
0F80
0F80
1FC0
ENDCHAR
STARTCHAR idieresis
ENCODING 239
SWIDTH 195 0
DWIDTH 10 0
BBX 14 33 -2 0
BITMAP
7078
F8F8
FCFC
FCFC
F8F8
7078
0000
0000
0000
0000
0000
0FC0
0FC0
0FC0
0FC0
0FC0
0FC0
0FC0
0FC0
0FC0
0FC0
0FC0
0FC0
0FC0
0FC0
0FC0
0FC0
0FC0
0FC0
0FC0
0FC0
0FC0
0FC0
ENDCHAR
STARTCHAR eth
ENCODING 240
SWIDTH 495 0
DWIDTH 25 0
BBX 23 33 1 0
BITMAP
002018
00F878
01FFF8
00FFC0
007F80
03FFC0
0FCFC0
0607E0
0003F0
0003F0
01F9F8
07FFF8
0FFFF8
1F87FC
3F01FC
7E01FC
7E00FC
7E00FC
FC00FC
FC00FE
FC00FE
FC00FC
FC00FC
FC00FC
FE00FC
7E00FC
7E01F8
7F01F8
3F87F0
1FFFF0
0FFFE0
07FF80
00FE00
ENDCHAR
STARTCHAR ntilde
ENCODING 241
SWIDTH 450 0
DWIDTH 23 0
BBX 18 33 2 0
BITMAP
078200
0FC600
1FFF00
3FFF00
1DFE00
083800
000000
000000
000000
000000
000000
FCF800
FFFE00
FFFF00
FFFF00
FFFF80
FE1F80
FC0FC0
FC0FC0
FC0FC0
FC07C0
FC07C0
FC07C0
FC07C0
FC07C0
FC07C0
FC07C0
FC07C0
FC07C0
FC07C0
FC07C0
FC0FC0
FC0FC0
ENDCHAR
STARTCHAR ograve
ENCODING 242
SWIDTH 421 0
DWIDTH 21 0
BBX 19 35 1 0
BITMAP
00C000
01C000
07C000
03E000
01E000
00F000
00F000
007000
004000
000000
000000
000000
000000
03F800
0FFE00
1FFF00
3FFF80
7FFF80
7E1FC0
7E0FC0
FC07C0
FC07C0
FC07C0
FC07E0
FC07E0
FC07C0
FC07C0
FC07C0
7E0FC0
7E1FC0
7FFF80
3FFF80
1FFF00
0FFE00
03F800
ENDCHAR
STARTCHAR oacute
ENCODING 243
SWIDTH 421 0
DWIDTH 21 0
BBX 19 35 1 0
BITMAP
006000
007000
007C00
00F800
00F000
00F000
01E000
01C000
004000
000000
000000
000000
000000
03F800
0FFE00
1FFF00
3FFF80
7FFF80
7E1FC0
7E0FC0
FC07C0
FC07C0
FC07C0
FC07E0
FC07E0
FC07C0
FC07C0
FC07C0
7E0FC0
7E1FC0
7FFF80
3FFF80
1FFF00
0FFE00
03F800
ENDCHAR
STARTCHAR ocircumflex
ENCODING 244
SWIDTH 421 0
DWIDTH 21 0
BBX 19 33 1 0
BITMAP
01F800
03F800
03FC00
07BE00
0F9E00
0F0F00
0E0700
040400
000000
000000
000000
03F800
0FFE00
1FFF00
3FFF80
7FFF80
7E1FC0
7E0FC0
FC07C0
FC07C0
FC07C0
FC07E0
FC07E0
FC07C0
FC07C0
FC07C0
7E0FC0
7E1FC0
7FFF80
3FFF80
1FFF00
0FFE00
03F800
ENDCHAR
STARTCHAR otilde
ENCODING 245
SWIDTH 418 0
DWIDTH 21 0
BBX 19 33 1 0
BITMAP
078200
0FC600
1FFF00
3FFF00
1CFE00
083C00
000000
000000
000000
000000
000000
03F800
0FFE00
1FFF00
3FFF80
7FFF80
7E1FC0
7E0FC0
FC07C0
FC07C0
FC07C0
FC07E0
FC07E0
FC07C0
FC07C0
FC07C0
7E0FC0
7E1FC0
7FFF80
3FFF80
1FFF00
0FFE00
03F800
ENDCHAR
STARTCHAR odieresis
ENCODING 246
SWIDTH 421 0
DWIDTH 21 0
BBX 19 33 1 0
BITMAP
0E0E00
1F1F00
3F1F00
3F1F00
1F1F00
0E0E00
000000
000000
000000
000000
000000
03F800
0FFE00
1FFF00
3FFF80
7FFF80
7E1FC0
7E0FC0
FC07C0
FC07C0
FC07C0
FC07E0
FC07E0
FC07C0
FC07C0
FC07C0
7E0FC0
7E1FC0
7FFF80
3FFF80
1FFF00
0FFE00
03F800
ENDCHAR
STARTCHAR divide
ENCODING 247
SWIDTH 561 0
DWIDTH 28 0
BBX 23 25 3 5
BITMAP
007800
00FC00
00FC00
00FC00
00FC00
007800
000000
000000
000000
FFFFFE
FFFFFE
FFFFFE
FFFFFE
FFFFFE
FFFFFE
000000
000000
000000
000000
007800
00FC00
00FC00
00FC00
00FC00
007800
ENDCHAR
STARTCHAR oslash
ENCODING 248
SWIDTH 455 0
DWIDTH 23 0
BBX 23 24 0 -1
BITMAP
000010
00FE38
03FFFC
07FFFE
0FFFF8
1FFFF0
3F87F0
3F07F8
3F0FF8
7E1FF8
7E3EFC
7E7CFC
7EF8FC
7FF0FC
7FE1F8
3FC1F8
3F83F8
3F87F0
3FFFF0
7FFFE0
FFFFC0
7BFF80
30FE00
100000
ENDCHAR
STARTCHAR ugrave
ENCODING 249
SWIDTH 438 0
DWIDTH 22 0
BBX 18 35 2 0
BITMAP
004000
01C000
03E000
03E000
01E000
00F000
00F000
007000
002000
000000
000000
000000
000000
FC0FC0
FC0FC0
FC0FC0
FC0FC0
FC0FC0
FC0FC0
FC0FC0
FC0FC0
FC0FC0
FC0FC0
FC0FC0
FC0FC0
FC0FC0
FC0FC0
FC0FC0
7C0FC0
7E1FC0
7FFFC0
3FFFC0
3FFFC0
1FFFC0
07CFC0
ENDCHAR
STARTCHAR uacute
ENCODING 250
SWIDTH 438 0
DWIDTH 22 0
BBX 18 35 2 0
BITMAP
004000
007000
00F800
00F800
00F000
01E000
01E000
03C000
008000
000000
000000
000000
000000
FC0FC0
FC0FC0
FC0FC0
FC0FC0
FC0FC0
FC0FC0
FC0FC0
FC0FC0
FC0FC0
FC0FC0
FC0FC0
FC0FC0
FC0FC0
FC0FC0
FC0FC0
7C0FC0
7E1FC0
7FFFC0
3FFFC0
3FFFC0
1FFFC0
07CFC0
ENDCHAR
STARTCHAR ucircumflex
ENCODING 251
SWIDTH 438 0
DWIDTH 22 0
BBX 18 33 2 0
BITMAP
03F000
03F800
07F800
0FBC00
0F1E00
1E1E00
0C0F00
080400
000000
000000
000000
FC0FC0
FC0FC0
FC0FC0
FC0FC0
FC0FC0
FC0FC0
FC0FC0
FC0FC0
FC0FC0
FC0FC0
FC0FC0
FC0FC0
FC0FC0
FC0FC0
FC0FC0
7C0FC0
7E1FC0
7FFFC0
3FFFC0
3FFFC0
1FFFC0
07CFC0
ENDCHAR
STARTCHAR udieresis
ENCODING 252
SWIDTH 438 0
DWIDTH 22 0
BBX 18 33 2 0
BITMAP
1E0E00
3E1F00
3F3F00
3F3F00
3E1F00
1E0E00
000000
000000
000000
000000
000000
FC0FC0
FC0FC0
FC0FC0
FC0FC0
FC0FC0
FC0FC0
FC0FC0
FC0FC0
FC0FC0
FC0FC0
FC0FC0
FC0FC0
FC0FC0
FC0FC0
FC0FC0
7C0FC0
7E1FC0
7FFFC0
3FFFC0
3FFFC0
1FFFC0
07CFC0
ENDCHAR
STARTCHAR yacute
ENCODING 253
SWIDTH 405 0
DWIDTH 20 0
BBX 19 45 1 -11
BITMAP
002000
007800
007C00
00F800
00F000
00F000
01E000
01C000
004000
000000
000000
000000
FC0FE0
FC0FC0
FC0FC0
7E0FC0
7E1F80
7E1F80
3E1F80
3F1F00
3F3F00
1F3F00
1F3F00
1FBE00
1FFE00
0FFE00
0FFC00
0FFC00
07FC00
07F800
07F800
07F800
03F800
03F000
03F000
03F000
07E000
07E000
07E000
0FC000
0FC000
0FC000
1FC000
1F8000
1F8000
ENDCHAR
STARTCHAR thorn
ENCODING 254
SWIDTH 447 0
DWIDTH 22 0
BBX 19 45 2 -12
BITMAP
FC0000
FC0000
FC0000
FC0000
FC0000
FC0000
FC0000
FC0000
FC0000
FC0000
FC0000
FCF800
FFFE00
FFFF00
FFFF80
FFFF80
FF1FC0
FC0FC0
FC07E0
FC07E0
FC07E0
FC07E0
FC07E0
FC07E0
FC07E0
FC0FE0
FC0FE0
FE1FC0
FFFFC0
FFFF80
FFFF00
FFFE00
FCF800
FC0000
FC0000
FC0000
FC0000
FC0000
FC0000
FC0000
FC0000
FC0000
FC0000
FC0000
FC0000
ENDCHAR
STARTCHAR ydieresis
ENCODING 255
SWIDTH 403 0
DWIDTH 20 0
BBX 19 44 1 -11
BITMAP
1C1E00
3E1F00
3F3F00
3F3F00
3E1F00
1C1E00
000000
000000
000000
000000
000000
FC0FE0
FC0FC0
FC0FC0
7E0FC0
7E1F80
7E1F80
3E1F80
3F1F00
3F3F00
1F3F00
1F3F00
1FBE00
1FFE00
0FFE00
0FFC00
0FFC00
07FC00
07F800
07F800
07F800
03F800
03F000
03F000
03F000
07E000
07E000
07E000
0FC000
0FC000
0FC000
1FC000
1F8000
1F8000
ENDCHAR
STARTCHAR Aogonek
ENCODING 260
SWIDTH 528 0
DWIDTH 26 0
BBX 25 43 1 -10
BITMAP
00FF0000
00FF0000
00FF8000
00FF8000
01FF8000
01FF8000
01FFC000
01FFC000
03FFC000
03FFC000
03FFE000
07F7E000
07E7E000
07E7E000
07E7F000
0FE3F000
0FC3F000
0FC3F800
0FC3F800
1F81F800
1F81F800
1FFFFF00
1FFFFF00
3FFFFF00
3FFFFF00
3FFFFF00
7E00FE00
7E007E00
7E007F00
7E007F00
FC007F00
FC003F00
FC003F80
00007800
00007000
0000E000
0000E000
0000E000
0000E000
0000F000
0000FE00
00007E00
00003E00
ENDCHAR
STARTCHAR aogonek
ENCODING 261
SWIDTH 397 0
DWIDTH 20 0
BBX 17 32 1 -10
BITMAP
07F800
1FFE00
1FFE00
1FFF00
1FFF00
103F80
001F80
001F80
07FF80
1FFF80
3FFF80
7FFF80
7FFF80
7E1F80
FC1F80
FC1F80
FC3F80
7FFF80
7FFF80
3FFF80
1FEF80
0F8F80
001C00
003C00
003800
003800
003800
003800
003C00
003F80
001F80
000F80
ENDCHAR
STARTCHAR Cacute
ENCODING 262
SWIDTH 417 0
DWIDTH 21 0
BBX 19 46 1 0
BITMAP
001000
001C00
003E00
003E00
003C00
007800
007800
00F000
002000
000000
000000
000000
003F00
01FFE0
03FFE0
07FFE0
0FFFE0
1FFFE0
1FE0E0
3FC000
3F8000
7F0000
7F0000
7E0000
FE0000
FE0000
FE0000
FE0000
FE0000
FE0000
FE0000
FE0000
FE0000
FE0000
7E0000
7F0000
7F0000
7F8000
3F8000
3FE060
1FFFE0
1FFFE0
0FFFE0
07FFE0
03FFE0
007F00
ENDCHAR
STARTCHAR cacute
ENCODING 263
SWIDTH 364 0
DWIDTH 18 0
BBX 16 35 1 0
BITMAP
0040
0070
007C
00F8
00F0
01E0
01E0
01C0
0080
0000
0000
0000
0000
01F8
07FF
0FFF
1FFF
3FFF
7F83
7F00
7E00
FE00
FC00
FC00
FC00
FC00
FE00
7E00
7F01
7F87
3FFF
1FFF
0FFF
07FF
01FC
ENDCHAR
STARTCHAR Ccaron
ENCODING 268
SWIDTH 417 0
DWIDTH 21 0
BBX 19 45 1 0
BITMAP
1E03C0
0F07C0
0F8780
078F00
07DF00
03FE00
03FE00
01FC00
000000
000000
000000
003F00
01FFE0
03FFE0
07FFE0
0FFFE0
1FFFE0
1FE0E0
3FC000
3F8000
7F0000
7F0000
7E0000
FE0000
FE0000
FE0000
FE0000
FE0000
FE0000
FE0000
FE0000
FE0000
FE0000
7E0000
7F0000
7F0000
7F8000
3F8000
3FE060
1FFFE0
1FFFE0
0FFFE0
07FFE0
03FFE0
007F80
ENDCHAR
STARTCHAR ccaron
ENCODING 269
SWIDTH 364 0
DWIDTH 18 0
BBX 16 35 1 0
BITMAP
F80F
781E
3C3E
3E7C
1FFC
1FF8
0FF8
07F0
0000
0000
0000
0000
0000
01F8
07FF
0FFF
1FFF
3FFF
7F83
7F00
7E00
FE00
FC00
FC00
FC00
FC00
FE00
7E00
7F01
7F87
3FFF
1FFF
0FFF
07FF
01FC
ENDCHAR
STARTCHAR Edotaccent
ENCODING 278
SWIDTH 404 0
DWIDTH 20 0
BBX 17 45 2 0
BITMAP
01E000
03F000
03F000
03F800
03F000
03F000
01E000
000000
000000
000000
000000
000000
FFFF80
7FFF80
7FFF80
7FFF80
7FFF80
7E0000
7E0000
7E0000
7E0000
7E0000
7E0000
7E0000
7E0000
7FFE00
7FFE00
7FFE00
7FFE00
7FFE00
7E0000
7E0000
7E0000
7E0000
7E0000
7E0000
7E0000
7E0000
7E0000
7E0000
7FFF80
7FFF80
7FFF80
7FFF80
FFFF80
ENDCHAR
STARTCHAR edotaccent
ENCODING 279
SWIDTH 405 0
DWIDTH 20 0
BBX 17 34 2 0
BITMAP
01C000
03E000
07F000
07F000
07F000
03E000
01C000
000000
000000
000000
000000
000000
03F000
0FF800
1FFE00
3FFE00
7FFF00
7E1F00
FC1F80
FC0F80
FFFF80
FFFF80
FFFF80
FFFF80
FFFF80
FC0000
FC0000
7E0200
7F0600
7FFE00
3FFE00
1FFE00
0FFE00
03F800
ENDCHAR
STARTCHAR Eogonek
ENCODING 280
SWIDTH 404 0
DWIDTH 20 0
BBX 17 43 2 -10
BITMAP
FFFF80
7FFF80
7FFF80
7FFF80
7FFF80
7E0000
7E0000
7E0000
7E0000
7E0000
7E0000
7E0000
7E0000
7FFE00
7FFE00
7FFE00
7FFE00
7FFE00
7E0000
7E0000
7E0000
7E0000
7E0000
7E0000
7E0000
7E0000
7E0000
7E0000
7FFF80
7FFF80
7FFF80
7FFF80
FFFF80
001C00
003C00
003800
003800
003800
003800
003C00
003F80
001F80
000F80
ENDCHAR
STARTCHAR eogonek
ENCODING 281
SWIDTH 405 0
DWIDTH 20 0
BBX 17 32 2 -10
BITMAP
03F000
0FF800
1FFE00
3FFE00
7FFF00
7E1F00
FC1F80
FC0F80
FFFF80
FFFF80
FFFF80
FFFF80
FFFF80
FC0000
FC0000
7E0000
7F0200
7FFE00
3FFE00
1FFE00
0FFE00
03FE00
003800
007000
007000
007000
007000
007000
007800
007F00
003F00
001F00
ENDCHAR
STARTCHAR Gbreve
ENCODING 286
SWIDTH 529 0
DWIDTH 26 0
BBX 23 44 1 -1
BITMAP
0780F0
03C1E0
03E3E0
01FFC0
01FFC0
00FF80
003E00
000000
000000
003F80
01FFE0
03FFF8
0FFFF8
0FFFF8
1FE078
3FC038
3F8008
7F0000
7F0000
7E0000
7E0000
FE0000
FE0000
FE0000
FE0000
FE0000
FE0000
FE0000
FE0000
FE007E
FE007E
FE007E
7E007E
7E007E
7F007E
7F007E
3F007E
3F80FE
1FC1FE
1FFFFE
0FFFFE
07FFEE
03FFC6
007F02
ENDCHAR
STARTCHAR gbreve
ENCODING 287
SWIDTH 415 0
DWIDTH 21 0
BBX 19 44 1 -12
BITMAP
1C0780
1E0F00
1F1F00
0FFE00
0FFE00
07FC00
01F000
000000
000000
000000
03F020
0FFFE0
1FFFE0
3FFFE0
7FFFE0
7E1F80
7C0F80
FC0F80
7C0F80
7C0F80
7C0F80
7E1F80
3FFF00
1FFE00
0FFC00
0FF000
1F8000
1F8000
1F8000
1F8000
0FF000
07FE00
1FFF80
3FFFC0
7FFFC0
FC07E0
FC03E0
F803E0
FC07E0
FE0FC0
7FFFC0
3FFF80
1FFF00
07FC00
ENDCHAR
STARTCHAR Iogonek
ENCODING 302
SWIDTH 232 0
DWIDTH 12 0
BBX 8 43 2 -10
BITMAP
FE
7E
7E
7E
7E
7E
7E
7E
7E
7E
7E
7E
7E
7E
7E
7E
7E
7E
7E
7E
7E
7E
7E
7E
7E
7E
7E
7E
7E
7E
7E
7E
FE
70
F0
E0
E0
E0
F0
F0
FF
7F
3E
ENDCHAR
STARTCHAR iogonek
ENCODING 303
SWIDTH 195 0
DWIDTH 10 0
BBX 8 44 1 -10
BITMAP
3C
7E
7E
7E
7F
7E
3C
00
00
00
00
00
7E
7E
7E
7E
7E
7E
7E
7E
7E
7E
7E
7E
7E
7E
7E
7E
7E
7E
7E
7E
7E
7E
38
70
F0
E0
E0
F0
F8
FF
7F
3F
ENDCHAR
STARTCHAR Idotaccent
ENCODING 304
SWIDTH 232 0
DWIDTH 12 0
BBX 7 44 2 0
BITMAP
3C
7C
7E
7E
7E
3C
00
00
00
00
00
FE
7E
7E
7E
7E
7E
7E
7E
7E
7E
7E
7E
7E
7E
7E
7E
7E
7E
7E
7E
7E
7E
7E
7E
7E
7E
7E
7E
7E
7E
7E
7E
FE
ENDCHAR
STARTCHAR dotlessi
ENCODING 305
SWIDTH 195 0
DWIDTH 10 0
BBX 6 22 2 0
BITMAP
FC
FC
FC
FC
FC
FC
FC
FC
FC
FC
FC
FC
FC
FC
FC
FC
FC
FC
FC
FC
FC
FC
ENDCHAR
STARTCHAR Lslash
ENCODING 321
SWIDTH 427 0
DWIDTH 21 0
BBX 21 33 0 0
BITMAP
1FC000
0FC000
0FC000
0FC000
0FC000
0FC000
0FC000
0FC000
0FC000
0FC000
0FC000
0FD800
0FF800
0FFC00
0FFC00
0FF000
0FE000
3FC000
7FC000
FFC000
7FC000
6FC000
0FC000
0FC000
0FC000
0FC000
0FC000
0FC000
0FFFF8
0FFFF8
0FFFF8
0FFFF8
1FFFF8
ENDCHAR
STARTCHAR lslash
ENCODING 322
SWIDTH 273 0
DWIDTH 14 0
BBX 14 33 0 0
BITMAP
1FC0
0F80
0F80
0F80
0F80
0F80
0F80
0F80
0F80
0F80
0F80
0F98
0FF8
0FFC
0FF8
0FF0
0FC0
3F80
7F80
FF80
7F80
6F80
0F80
0F80
0F80
0F80
0F80
0F80
0F80
0F80
0F80
0F80
1FC0
ENDCHAR
STARTCHAR OE
ENCODING 338
SWIDTH 751 0
DWIDTH 38 0
BBX 36 34 1 0
BITMAP
007E000000
03FFDFFFE0
07FFFFFFE0
0FFFFFFFE0
1FFFFFFFE0
1FE1FFFFE0
3F80FFFFE0
3F007F8000
7F007F8000
7F003F8000
7E003F8000
7E003F8000
7E003F8000
FE003F8000
FE001F8000
FE001FFF80
FE001FFF80
FE001FFF80
FE001FFF80
FE001FFF80
FE003F8000
7E003F8000
7E003F8000
7E003F8000
7F003F8000
7F007F8000
3F007F8000
3F80FF8000
1FC1FF8070
1FFFFFFFF0
0FFFFFFFF0
07FFFFFFF0
03FF9FFFF0
007E1FFFF0
ENDCHAR
STARTCHAR oe
ENCODING 339
SWIDTH 689 0
DWIDTH 34 0
BBX 32 22 1 0
BITMAP
01F80FC0
07FE1FF0
0FFFFFF8
1FFFFFFC
3FFFFC7E
7F8FF83E
7E03F03F
7E03F01F
FE03FFFF
FC03FFFF
FC01FFFF
FC01FFFF
FC03FFFF
FC03F000
7E03F001
7E03F803
7F0FFC0F
3FFFFFFF
1FFFFFFF
0FFFBFFF
07FF1FFE
01FC07F8
ENDCHAR
STARTCHAR Scedilla
ENCODING 350
SWIDTH 418 0
DWIDTH 21 0
BBX 19 44 1 -10
BITMAP
03FC00
1FFF00
3FFF80
7FFF80
7FFF80
FE0780
FC0180
FC0000
FC0000
FE0000
FE0000
7F8000
7FC000
3FF000
1FF800
0FFE00
07FF00
01FF80
00FF80
003FC0
001FC0
000FE0
000FE0
000FE0
000FE0
000FE0
001FE0
E03FC0
FFFFC0
FFFFC0
FFFF80
FFFF00
FFFC00
1FF000
00E000
00E000
00F000
007800
007800
00F800
07F800
07F000
07E000
078000
ENDCHAR
STARTCHAR Scaron
ENCODING 352
SWIDTH 418 0
DWIDTH 21 0
BBX 19 44 1 0
BITMAP
7C0780
3C0F00
1E1F00
1F3E00
0FFE00
0FFC00
07FC00
03F800
000000
000000
03FC00
1FFF00
3FFF80
7FFF80
7FFF80
FE0780
FC0180
FC0080
FC0000
FE0000
FF0000
7F8000
7FC000
3FF000
1FFC00
0FFE00
07FF00
01FF80
00FFC0
003FC0
001FC0
000FE0
000FE0
000FE0
000FE0
000FE0
801FE0
E03FC0
FFFFC0
FFFF80
FFFF80
FFFF00
FFFC00
1FE000
ENDCHAR
STARTCHAR scaron
ENCODING 353
SWIDTH 344 0
DWIDTH 17 0
BBX 15 33 1 0
BITMAP
F01E
F83C
787C
3CF8
3EF8
1FF0
1FF0
0FE0
0000
0000
0000
0FE0
3FFC
7FFC
7FFC
FC1C
FC00
FC00
FF00
7FC0
7FF0
3FF8
0FFC
07FE
01FE
007E
807E
E07E
FFFE
FFFC
FFFC
FFF0
1FC0
ENDCHAR
STARTCHAR Umacron
ENCODING 362
SWIDTH 538 0
DWIDTH 27 0
BBX 23 41 2 -1
BITMAP
0FFFE0
0FFFE0
0FFFE0
0FFFE0
000000
000000
000000
FC00FE
FC007E
FC007E
FC007E
FC007E
FC007E
FC007E
FC007E
FC007E
FC007E
FC007E
FC007E
FC007E
FC007E
FC007E
FC007E
FC007E
FC007E
FC007E
FC007E
FC007E
FC007E
FC007E
FC007E
FE00FE
FE00FE
7E00FC
7F01FC
3F83F8
3FFFF8
1FFFF0
0FFFE0
07FF80
00FE00
ENDCHAR
STARTCHAR umacron
ENCODING 363
SWIDTH 449 0
DWIDTH 22 0
BBX 17 28 3 0
BITMAP
7FFF00
7FFF00
7FFF00
7FFF00
000000
000000
FC0F80
F80F80
F80F80
F80F80
F80F80
F80F80
F80F80
F80F80
F80F80
F80F80
F80F80
F80F80
F80F80
F80F80
FC0F80
FC0F80
FE3F80
7FFF80
7FFF80
3FFF80
1FEF80
0FCF80
ENDCHAR
STARTCHAR Uogonek
ENCODING 370
SWIDTH 538 0
DWIDTH 27 0
BBX 23 43 2 -10
BITMAP
FC00FE
FC007E
FC007E
FC007E
FC007E
FC007E
FC007E
FC007E
FC007E
FC007E
FC007E
FC007E
FC007E
FC007E
FC007E
FC007E
FC007E
FC007E
FC007E
FC007E
FC007E
FC007E
FC007E
FC007E
FE00FE
FE00FE
7E00FC
7F01FC
3F83F8
3FFFF8
1FFFF0
0FFFE0
07FFC0
01FE00
007000
007000
00F000
00F000
00F000
00F800
00FF00
007F00
003F00
ENDCHAR
STARTCHAR uogonek
ENCODING 371
SWIDTH 449 0
DWIDTH 22 0
BBX 17 32 3 -10
BITMAP
FC0F80
F80F80
F80F80
F80F80
F80F80
F80F80
F80F80
F80F80
F80F80
F80F80
F80F80
F80F80
F80F80
F80F80
FC0F80
FC0F80
FE3F80
7FFF80
7FFF80
3FFF80
1FEF80
0FCF80
001C00
003800
003800
003800
003800
003800
003C00
003F80
001F80
000F80
ENDCHAR
STARTCHAR Ydieresis
ENCODING 376
SWIDTH 488 0
DWIDTH 24 0
BBX 22 44 1 0
BITMAP
078380
07C7C0
0FCFC0
0FCFC0
07C7C0
078380
000000
000000
000000
000000
000000
FC00FC
FC00FC
7C00F8
7E01F8
3E01F0
3F03F0
3F03F0
1F87E0
1F87E0
0F87C0
0FCFC0
07CF80
07FF80
07FF80
03FF00
03FF00
01FE00
01FE00
00FC00
00FC00
00FC00
00FC00
00FC00
00FC00
00FC00
00FC00
00FC00
00FC00
00FC00
00FC00
00FC00
00FC00
00FC00
ENDCHAR
STARTCHAR Zcaron
ENCODING 381
SWIDTH 423 0
DWIDTH 21 0
BBX 19 44 1 0
BITMAP
3C03C0
1E0780
0F0F80
0F9F00
07FE00
07FE00
03FC00
03FC00
000000
000000
000000
7FFFE0
7FFFE0
7FFFE0
7FFFE0
7FFFE0
000FE0
000FC0
001FC0
001F80
003F80
003F00
007F00
00FE00
00FC00
01FC00
01F800
03F800
03F000
07F000
07E000
0FE000
0FC000
1FC000
3F8000
3F0000
7F0000
7E0000
FE0000
FFFFE0
FFFFE0
FFFFE0
FFFFE0
FFFFE0
ENDCHAR
STARTCHAR zcaron
ENCODING 382
SWIDTH 346 0
DWIDTH 17 0
BBX 16 33 1 0
BITMAP
F00F
781E
3C3E
3E7C
1FF8
1FF8
0FF0
0FF0
0000
0000
0000
7FFE
7FFE
7FFE
7FFE
7FFE
00FE
00FC
01F8
03F8
03F0
07E0
0FE0
0FC0
1F80
3F00
3F00
7E00
FFFF
FFFF
FFFF
FFFF
FFFF
ENDCHAR
STARTCHAR florin
ENCODING 402
SWIDTH 502 0
DWIDTH 25 0
BBX 28 42 -4 -6
BITMAP
00000FC0
00003FF0
00007FF0
00007FF0
0000FFF0
0000FE30
0001FC10
0001F800
0001F800
0003F000
0003F000
0003F000
0003F000
0007F000
007FFF80
007FFF80
007FFF80
007FFF80
007FFF80
000FC000
000FC000
001FC000
001F8000
001F8000
001F8000
001F8000
003F0000
003F0000
003F0000
003F0000
007E0000
007E0000
00FE0000
00FC0000
01FC0000
03F80000
0FF80000
FFF00000
FFE00000
FFC00000
7F000000
78000000
ENDCHAR
STARTCHAR circumflex
ENCODING 710
SWIDTH 387 0
DWIDTH 19 0
BBX 13 8 3 25
BITMAP
0F80
1FC0
3DE0
3CE0
78F0
F078
2038
0010
ENDCHAR
STARTCHAR caron
ENCODING 711
SWIDTH 326 0
DWIDTH 16 0
BBX 15 8 1 26
BITMAP
F01E
F03C
787C
3CF8
3EF8
1FF0
1FE0
0FE0
ENDCHAR
STARTCHAR macron.dup1
ENCODING 713
SWIDTH 449 0
DWIDTH 22 0
BBX 15 4 4 24
BITMAP
FFFE
FFFE
FFFE
FFFE
ENDCHAR
STARTCHAR breve
ENCODING 728
SWIDTH 529 0
DWIDTH 26 0
BBX 15 7 6 36
BITMAP
F01E
783C
7C7C
3FF8
3FF8
1FF0
07C0
ENDCHAR
STARTCHAR dotaccent
ENCODING 729
SWIDTH 326 0
DWIDTH 16 0
BBX 7 7 4 27
BITMAP
3C
7E
7E
FE
7E
7E
3C
ENDCHAR
STARTCHAR ring
ENCODING 730
SWIDTH 333 0
DWIDTH 17 0
BBX 9 10 4 25
BITMAP
3E00
7F00
FF80
E380
E380
E380
E380
FF80
7F00
3E00
ENDCHAR
STARTCHAR ogonek
ENCODING 731
SWIDTH 397 0
DWIDTH 20 0
BBX 7 10 11 -10
BITMAP
78
70
E0
E0
E0
E0
F2
FE
7E
3E
ENDCHAR
STARTCHAR tilde
ENCODING 732
SWIDTH 411 0
DWIDTH 21 0
BBX 14 6 3 27
BITMAP
1E08
3F18
7FFC
FFFC
73F8
20F0
ENDCHAR
STARTCHAR hungarumlaut
ENCODING 733
SWIDTH 327 0
DWIDTH 16 0
BBX 18 7 0 27
BITMAP
3F9FC0
3F1F80
3E1F00
7C3E00
783C00
703800
E07800
ENDCHAR
STARTCHAR Delta
ENCODING 916
SWIDTH 732 0
DWIDTH 37 0
BBX 35 36 1 0
BITMAP
0007F80000
0007F80000
0007FC0000
000FFC0000
000FFC0000
001FFE0000
001FFE0000
001FFF0000
003FFF0000
003FFF0000
003FFF8000
007FBF8000
007F3FC000
00FF3FC000
00FF1FC000
00FE1FE000
01FE0FE000
01FC0FE000
01FC0FF000
03FC07F000
03F807F800
07F807F800
07F803F800
07F003FC00
0FF001FC00
0FF001FE00
0FE001FE00
1FE000FE00
1FE000FF00
3FC000FF00
3FFFFFFF00
3FFFFFFF80
7FFFFFFF80
7FFFFFFFC0
7FFFFFFFC0
FFFFFFFFE0
ENDCHAR
STARTCHAR Omega
ENCODING 937
SWIDTH 732 0
DWIDTH 37 0
BBX 34 35 1 0
BITMAP
0007FC0000
003FFF8000
00FFFFE000
03FFFFF000
07FFFFFC00
0FFFFFFE00
0FFC07FE00
1FF001FF00
3FE000FF00
3FC0007F80
3F80003F80
7F80003FC0
7F00001FC0
7F00001FC0
7F00001FC0
7F00001FC0
7F00001FC0
7F00001FC0
7F00001FC0
7F00001FC0
7F00001FC0
7F80003FC0
3F80003F80
3FC0007F80
3FC0007F80
1FE000FF00
0FF001FE00
07F803FE00
07FE0FFC00
FFFF1FFFC0
FFFF1FFFC0
FFFF1FFFC0
FFFF1FFFC0
FFFF1FFFC0
FFFF1FFFC0
ENDCHAR
STARTCHAR mu.dup2
ENCODING 956
SWIDTH 603 0
DWIDTH 30 0
BBX 23 30 4 -8
BITMAP
FC00FE
FC00FE
FC00FE
FC00FE
FC00FE
FC00FE
FC00FE
FC00FE
FC00FE
FC00FE
FC00FE
FC00FE
FE00FE
FE00FE
FF01FE
FF83FE
FFFFFE
FFFFFE
FFFFFE
FDFF7E
FCFF7E
FC7E7E
FC0000
FC0000
FC0000
FC0000
FC0000
FC0000
FC0000
FC0000
ENDCHAR
STARTCHAR pi
ENCODING 960
SWIDTH 618 0
DWIDTH 31 0
BBX 27 23 2 -1
BITMAP
FFFFFFE0
FFFFFFE0
FFFFFFE0
FFFFFFE0
0FC07E00
0FC07E00
0FC07E00
0FC07E00
0FC07E00
0FC07E00
0FC07E00
0FC07E00
0FC07E00
0FC07E00
0FC07E00
0FC07E00
0FC07E00
0FC07FC0
0FC07FC0
0FC07FC0
0FC07FC0
0FC03FC0
00000F80
ENDCHAR
STARTCHAR hyphen.dup3
ENCODING 8208
SWIDTH 321 0
DWIDTH 16 0
BBX 13 5 1 9
BITMAP
FFF8
FFF8
FFF8
FFF8
FFF8
ENDCHAR
STARTCHAR endash
ENCODING 8211
SWIDTH 504 0
DWIDTH 25 0
BBX 21 5 2 9
BITMAP
FFFFF8
FFFFF8
FFFFF8
FFFFF8
FFFFF8
ENDCHAR
STARTCHAR emdash
ENCODING 8212
SWIDTH 852 0
DWIDTH 43 0
BBX 38 5 2 9
BITMAP
FFFFFFFFFC
FFFFFFFFFC
FFFFFFFFFC
FFFFFFFFFC
FFFFFFFFFC
ENDCHAR
STARTCHAR quoteleft
ENCODING 8216
SWIDTH 233 0
DWIDTH 12 0
BBX 6 10 3 24
BITMAP
3C
78
F0
F0
F8
FC
FC
FC
FC
78
ENDCHAR
STARTCHAR quoteright
ENCODING 8217
SWIDTH 233 0
DWIDTH 12 0
BBX 6 10 3 24
BITMAP
78
FC
FC
FC
FC
7C
3C
38
78
F0
ENDCHAR
STARTCHAR quotesinglbase
ENCODING 8218
SWIDTH 237 0
DWIDTH 12 0
BBX 6 10 3 -4
BITMAP
78
FC
FC
FC
FC
7C
3C
38
78
F0
ENDCHAR
STARTCHAR quotedblleft
ENCODING 8220
SWIDTH 390 0
DWIDTH 20 0
BBX 14 10 3 24
BITMAP
3C3C
7878
F0F0
F0E0
F9F8
FDFC
FDFC
FDFC
FCFC
7878
ENDCHAR
STARTCHAR quotedblright
ENCODING 8221
SWIDTH 390 0
DWIDTH 20 0
BBX 14 10 3 24
BITMAP
7870
FCF8
FDFC
FDFC
FCFC
7CFC
3C3C
3878
7870
F1F0
ENDCHAR
STARTCHAR quotedblbase
ENCODING 8222
SWIDTH 390 0
DWIDTH 20 0
BBX 14 10 3 -4
BITMAP
7870
FCF8
FDFC
FDFC
FCFC
7CFC
3C3C
3878
7870
F1F0
ENDCHAR
STARTCHAR dagger
ENCODING 8224
SWIDTH 510 0
DWIDTH 26 0
BBX 21 45 2 -11
BITMAP
00FC00
00F800
00F800
00F800
00F800
007800
007800
007800
007000
007000
E07038
FF33F8
FFFFF8
FFFFF8
FF37F8
E03038
007000
007000
007000
007000
007000
007000
007800
007800
007800
007800
00F800
00F800
00F800
00F800
00F800
00F800
00F800
00FC00
00FC00
00FC00
00FC00
01FC00
01FC00
01FC00
01FC00
01FC00
01FC00
01FE00
01FE00
ENDCHAR
STARTCHAR daggerdbl
ENCODING 8225
SWIDTH 510 0
DWIDTH 26 0
BBX 21 51 2 -18
BITMAP
00FC00
00F800
00F800
00F800
007800
007800
007800
007000
007000
007000
F07038
FFB7F8
FFFFF8
FFFFF8
FE33F8
C07018
007000
007000
007800
007800
007800
00F800
00F800
00F800
00FC00
00FC00
00F800
00F800
00F800
00F800
007800
007800
007800
007000
007000
E07018
FE33F8
FFFFF8
FFFFF8
FF37F8
F07038
007000
007000
007000
007800
007800
00F800
00F800
00F800
00F800
00FC00
ENDCHAR
STARTCHAR bullet
ENCODING 8226
SWIDTH 310 0
DWIDTH 16 0
BBX 12 12 2 11
BITMAP
1F00
3FC0
7FC0
FFE0
FFE0
FFE0
FFF0
FFE0
FFE0
7FC0
3FC0
1F00
ENDCHAR
STARTCHAR ellipsis
ENCODING 8230
SWIDTH 1000 0
DWIDTH 50 0
BBX 41 8 5 0
BITMAP
78003C001C00
FC007E003F00
FE00FF007F00
FE00FF007F00
FE00FF007F80
FE00FF007F00
FC007E003F00
38003C001C00
ENDCHAR
STARTCHAR perthousand
ENCODING 8240
SWIDTH 966 0
DWIDTH 48 0
BBX 45 35 2 -1
BITMAP
0F8004000000
3FE00F000000
7FF00F800000
7FF01F800000
F8F81F000000
F8F83E000000
F8F83E000000
F8F87C000000
F0787C000000
F078F8000000
F0F8F8000000
F8F9F0000000
F8F9F0000000
F8FBE0000000
7FF3E0000000
7FF7C0000000
3FEFCFC01F80
0F8F9FE07FC0
001FBFF0FFE0
001F7FF8FFF0
003F7CF8F9F0
003E787DF1F0
007EF87DF0F0
007CF87DF0F8
00FCF87DF0F8
00F8F87DF0F8
01F8F87DF0F8
01F0F87DF0F0
03F0787DF1F0
03E07CF8F9F0
07E07FF8FFF0
0FC03FF0FFE0
07C01FF07FC0
03800FC01F80
008000000000
ENDCHAR
STARTCHAR guilsinglleft
ENCODING 8249
SWIDTH 235 0
DWIDTH 12 0
BBX 8 17 2 4
BITMAP
04
0F
0E
1E
3E
3C
7C
78
F8
78
7C
3C
3C
1E
0E
0F
04
ENDCHAR
STARTCHAR guilsinglright
ENCODING 8250
SWIDTH 235 0
DWIDTH 12 0
BBX 8 17 2 4
BITMAP
20
F0
70
78
78
3C
3E
3E
1F
3E
3E
3C
78
78
F0
E0
20
ENDCHAR
STARTCHAR fraction
ENCODING 8260
SWIDTH 425 0
DWIDTH 21 0
BBX 21 35 0 -1
BITMAP
0000C0
0000F0
0000F8
0001F8
0001F0
0003E0
0003E0
0007C0
0007C0
000F80
000F80
001F00
001F00
003E00
003E00
007C00
007C00
00F800
00F800
01F000
03F000
03E000
07E000
07C000
0FC000
0F8000
1F8000
1F0000
3F0000
3E0000
7E0000
7C0000
FC0000
380000
080000
ENDCHAR
STARTCHAR euro
ENCODING 8364
SWIDTH 462 0
DWIDTH 23 0
BBX 21 34 0 0
BITMAP
000FE0
003FF8
007FF8
00FFF8
01FFF8
03FFF8
07FC18
07F000
0FF000
0FE000
0FC000
1FC000
1FC000
7FFF80
7FFF80
7FFF80
1F8000
1F8000
1F8000
7FFF00
FFFF00
FFFF00
1FC000
1FC000
0FC000
0FE000
0FF000
07F818
07FFF8
03FFF8
01FFF8
00FFF8
007FF8
001FE0
ENDCHAR
STARTCHAR trademark
ENCODING 8482
SWIDTH 658 0
DWIDTH 33 0
BBX 30 20 1 16
BITMAP
FFF1E07C
FFF1F07C
FFF1F07C
0701F07C
0701B07C
0701B0FC
0701B8DC
070198DC
070198DC
070198DC
070199DC
07019D9C
07018D9C
07018D9C
07018F9C
07018F9C
07018F1C
0701871C
0701871C
0701871C
ENDCHAR
STARTCHAR Omega.dup4
ENCODING 8486
SWIDTH 732 0
DWIDTH 37 0
BBX 34 35 1 0
BITMAP
0007FC0000
003FFF8000
00FFFFE000
03FFFFF000
07FFFFFC00
0FFFFFFE00
0FFC07FE00
1FF001FF00
3FE000FF00
3FC0007F80
3F80003F80
7F80003FC0
7F00001FC0
7F00001FC0
7F00001FC0
7F00001FC0
7F00001FC0
7F00001FC0
7F00001FC0
7F00001FC0
7F00001FC0
7F80003FC0
3F80003F80
3FC0007F80
3FC0007F80
1FE000FF00
0FF001FE00
07F803FE00
07FE0FFC00
FFFF1FFFC0
FFFF1FFFC0
FFFF1FFFC0
FFFF1FFFC0
FFFF1FFFC0
FFFF1FFFC0
ENDCHAR
STARTCHAR partialdiff
ENCODING 8706
SWIDTH 493 0
DWIDTH 25 0
BBX 22 33 1 0
BITMAP
007E00
01FF80
03FFC0
01FFE0
00FFF0
00FFF0
0063F8
0041F8
0001F8
0000FC
0000FC
0000FC
00FCFC
07FEFC
0FFFFC
1FFFFC
3FFFFC
3FFFFC
7F87FC
7F03FC
7F03FC
FE01FC
FE01F8
FE03F8
FE03F8
7E03F0
7F07F0
7F8FE0
3FFFC0
3FFFC0
1FFF80
0FFE00
03F800
ENDCHAR
STARTCHAR Delta.dup5
ENCODING 8710
SWIDTH 732 0
DWIDTH 37 0
BBX 35 36 1 0
BITMAP
0007F80000
0007F80000
0007FC0000
000FFC0000
000FFC0000
001FFE0000
001FFE0000
001FFF0000
003FFF0000
003FFF0000
003FFF8000
007FBF8000
007F3FC000
00FF3FC000
00FF1FC000
00FE1FE000
01FE0FE000
01FC0FE000
01FC0FF000
03FC07F000
03F807F800
07F807F800
07F803F800
07F003FC00
0FF001FC00
0FF001FE00
0FE001FE00
1FE000FE00
1FE000FF00
3FC000FF00
3FFFFFFF00
3FFFFFFF80
7FFFFFFF80
7FFFFFFFC0
7FFFFFFFC0
FFFFFFFFE0
ENDCHAR
STARTCHAR product
ENCODING 8719
SWIDTH 768 0
DWIDTH 38 0
BBX 33 37 4 -4
BITMAP
FFFFFFFF80
FFFFFFFF80
FFFFFFFF80
FFFFFFFF80
FFFFFFFF80
0FE003F800
0FE003F800
0FE003F800
0FE003F800
0FE003F800
0FE003F800
0FE003F800
0FE003F800
0FE003F800
0FE003F800
0FE003F800
0FE003F800
0FE003F800
0FE003F800
0FE003F800
0FE003F800
0FE003F800
0FE003F800
0FE003F800
0FE003F800
0FE003F800
0FE003F800
0FE003F800
0FE003F800
0FE003F800
0FE003F800
0FE003F800
0FE003F800
0FE003F800
0FE003F800
0FE003F800
0FE003F800
ENDCHAR
STARTCHAR summation
ENCODING 8721
SWIDTH 587 0
DWIDTH 29 0
BBX 27 38 1 -3
BITMAP
7FFFFFC0
7FFFFFC0
7FFFFFC0
7FFFFFC0
7FFFFFC0
7FFFFFC0
3FC00000
1FE00000
0FF00000
07F80000
03FC0000
01FE0000
00FF0000
007F8000
003FC000
003FE000
001FF000
000FF800
0007FC00
0007F800
000FF000
001FE000
003FC000
007F8000
00FF0000
01FE0000
03FC0000
07FC0000
0FF80000
0FF00000
1FE00000
3FC00000
7FFFFFE0
FFFFFFE0
FFFFFFE0
FFFFFFE0
FFFFFFE0
FFFFFFE0
ENDCHAR
STARTCHAR minus.dup6
ENCODING 8722
SWIDTH 561 0
DWIDTH 28 0
BBX 23 6 3 14
BITMAP
FFFFFE
FFFFFE
FFFFFE
FFFFFE
FFFFFE
FFFFFE
ENDCHAR
STARTCHAR periodcentered.dup7
ENCODING 8729
SWIDTH 233 0
DWIDTH 12 0
BBX 8 8 2 13
BITMAP
3C
7E
FE
FF
FF
FE
7E
3C
ENDCHAR
STARTCHAR radical
ENCODING 8730
SWIDTH 647 0
DWIDTH 32 0
BBX 36 48 -2 -1
BITMAP
00000003F0
00000007F0
00000007E0
00000007E0
0000000FE0
0000000FC0
0000000FC0
0000001FC0
0000001F80
0000003F80
0000003F80
0000003F00
0000007F00
0000007F00
0000007E00
000000FE00
000000FE00
000000FC00
000001FC00
002001F800
006001F800
01F003F800
07F003F000
1FF003F000
7FF807F000
FFF807E000
FFF80FE000
7FFC0FE000
79FC0FC000
20FE1FC000
00FE1FC000
00FE1F8000
007F3F8000
007F3F0000
007F3F0000
003FFF0000
003FFE0000
003FFE0000
001FFE0000
001FFC0000
001FFC0000
000FFC0000
000FF80000
0007F80000
0007F80000
0007F00000
0003F00000
0003E00000
ENDCHAR
STARTCHAR integral
ENCODING 8747
SWIDTH 253 0
DWIDTH 13 0
BBX 20 41 -4 -7
BITMAP
0007E0
001FF0
003FF0
003FF0
007FF0
007F10
00FE00
00FE00
00FC00
00FC00
00FC00
00FC00
00FC00
00FC00
01FC00
01FC00
01FC00
01FC00
01FC00
01FC00
01FC00
01FC00
01F800
01F800
01F800
01F800
01F800
01F800
01F800
01F800
03F800
03F800
03F000
03F000
03F000
47F000
FFE000
FFE000
FFC000
FF8000
7E0000
ENDCHAR
STARTCHAR approxequal
ENCODING 8776
SWIDTH 548 0
DWIDTH 27 0
BBX 24 19 2 3
BITMAP
1F8001
7FF003
FFFE0F
FFFFFF
FFFFFF
E07FFF
800FFC
0003F0
000000
000000
1F8001
3FE001
FFF803
FFFE0F
F0FFFF
C03FFF
800FFE
8007FC
0001F0
ENDCHAR
STARTCHAR notequal
ENCODING 8800
SWIDTH 572 0
DWIDTH 29 0
BBX 24 35 3 0
BITMAP
000200
000380
0007E0
0007C0
0007C0
000FC0
000F80
000F80
001F80
FFFFFF
FFFFFF
FFFFFF
FFFFFF
FFFFFF
FFFFFF
007C00
007C00
007C00
00F800
00F800
FFFFFF
FFFFFF
FFFFFF
FFFFFF
FFFFFF
FFFFFF
03E000
07E000
07C000
07C000
0F8000
0F8000
1F8000
078000
010000
ENDCHAR
STARTCHAR lessequal
ENCODING 8804
SWIDTH 572 0
DWIDTH 29 0
BBX 23 32 3 0
BITMAP
000002
00000E
00003E
0001FE
0007FE
001FFE
00FFFC
03FFE0
0FFF80
7FFC00
FFF000
FF8000
FE0000
FF0000
FFC000
FFF800
3FFE00
0FFFC0
01FFF0
007FFE
001FFE
0003FE
0000FE
00003E
000006
000002
000000
FFFFFE
FFFFFE
FFFFFE
FFFFFE
FFFFFE
ENDCHAR
STARTCHAR greaterequal
ENCODING 8805
SWIDTH 572 0
DWIDTH 29 0
BBX 23 32 3 0
BITMAP
800000
E00000
FC0000
FF0000
FFC000
FFF800
7FFE00
0FFF80
03FFF0
007FFC
000FFE
0003FE
00007E
0000FE
0007FE
001FFE
00FFF8
07FFE0
1FFF00
FFFC00
FFF000
FF8000
FE0000
F80000
C00000
800000
000000
FFFFFE
FFFFFE
FFFFFE
FFFFFE
FFFFFE
ENDCHAR
STARTCHAR approxequal.dup8
ENCODING 8946
SWIDTH 548 0
DWIDTH 27 0
BBX 24 19 2 3
BITMAP
1F8001
7FF003
FFFE0F
FFFFFF
FFFFFF
E07FFF
800FFC
0003F0
000000
000000
1F8001
3FE001
FFF803
FFFE0F
F0FFFF
C03FFF
800FFE
8007FC
0001F0
ENDCHAR
STARTCHAR lozenge
ENCODING 9674
SWIDTH 553 0
DWIDTH 28 0
BBX 25 40 1 -2
BITMAP
00080000
000C0000
001C0000
001E0000
003F0000
007F0000
007F8000
00FFC000
01FFC000
01FFE000
03FFE000
03F7F000
07F3F800
0FE3F800
0FE1FC00
1FC0FE00
3F80FE00
3F807F00
7F003F00
7E003F80
FF003F80
7F007F00
3F807F00
1FC0FE00
1FC1FC00
0FE1FC00
07E3F800
07F3F000
03FFF000
03FFE000
01FFE000
00FFC000
00FF8000
007F8000
007F0000
003F0000
001E0000
001C0000
000C0000
00080000
ENDCHAR
STARTCHAR apple
ENCODING 61440
SWIDTH 855 0
DWIDTH 43 0
BBX 40 40 0 0
BITMAP
FFFE0001FF
FFFC0003FF
FFF80003FF
FFF80007FF
FFF0000FFF
FFE0000FFF
FFC0001FFF
FFC0003FFF
FF80003FFF
FF00007FFF
FF0000FFFF
FE0000FFFF
FC0001FFFF
FC0003FFFF
F80007FFFF
F00007FFFF
F0000FFFFF
E0001FFFFF
C0001FFFFF
80003FFFFF
C0003FFFFF
C0001FFFFF
E0000FFFFF
F0000FFFFF
F00007FFFF
F80003FFFF
FC0003FFFF
FC0001FFFF
FE0000FFFF
FF0000FFFF
FF00007FFF
FF80003FFF
FFC0003FFF
FFE0001FFF
FFE0000FFF
FFF0000FFF
FFF80007FF
FFF80003FF
FFFC0003FF
FFFE0001FF
ENDCHAR
STARTCHAR fi
ENCODING 61441
SWIDTH 508 0
DWIDTH 25 0
BBX 24 34 0 0
BITMAP
01FC3C
03FC7E
07FCFE
0FFCFF
0FFCFF
1FC07E
1F803C
1F0000
1F0000
1F0000
3F0000
3F0000
FFF87E
FFF87E
FFF87E
FFF87E
FFF87E
3F007E
3F007E
3F007E
3F007E
3F007E
3F007E
3F007E
3F007E
3F007E
3F007E
3F007E
3F007E
3F007E
3F007E
3F007E
3F007E
3F007E
ENDCHAR
STARTCHAR fl
ENCODING 61442
SWIDTH 507 0
DWIDTH 25 0
BBX 23 33 0 0
BITMAP
01FFFE
07FFFE
0FFFFE
0FFFFE
1FFFFE
1F807E
1F807E
1F007E
1F007E
3F007E
3F007E
FFF87E
FFF87E
FFF87E
FFF87E
FFF87E
3F007E
3F007E
3F007E
3F007E
3F007E
3F007E
3F007E
3F007E
3F007E
3F007E
3F007E
3F007E
3F007E
3F007E
3F007E
3F007E
3F007E
ENDCHAR
STARTCHAR .notdef
ENCODING -1
SWIDTH 500 0
DWIDTH 25 0
BBX 19 40 3 0
BITMAP
FFFFE0
FFFFE0
FFFFE0
E000E0
E000E0
E000E0
E000E0
E000E0
E000E0
E000E0
E000E0
E000E0
E000E0
E000E0
E000E0
E000E0
E000E0
E000E0
E000E0
E000E0
E000E0
E000E0
E000E0
E000E0
E000E0
E000E0
E000E0
E000E0
E000E0
E000E0
E000E0
E000E0
E000E0
E000E0
E000E0
E000E0
E000E0
FFFFE0
FFFFE0
FFFFE0
ENDCHAR
STARTCHAR NULL
ENCODING -1
SWIDTH 0 0
DWIDTH 0 0
BBX 1 1 0 0
BITMAP
00
ENDCHAR
STARTCHAR nonmarkingreturn
ENCODING -1
SWIDTH 187 0
DWIDTH 9 0
BBX 1 1 0 0
BITMAP
00
ENDCHAR
STARTCHAR HT
ENCODING -1
SWIDTH 187 0
DWIDTH 9 0
BBX 1 1 0 0
BITMAP
00
ENDCHAR
STARTCHAR CR.001
ENCODING -1
SWIDTH 187 0
DWIDTH 9 0
BBX 1 1 0 0
BITMAP
00
ENDCHAR
ENDFONT
